<svg width="41" height="40" viewBox="0 0 41 40" fill="none" xmlns="http://www.w3.org/2000/svg">
<g clip-path="url(#clip0_1262_1772)">
<path fill-rule="evenodd" clip-rule="evenodd" d="M39.8205 25.1688C38.4375 30.3288 35.1285 34.6408 30.5015 37.3118C27.4195 39.0908 23.9985 39.9988 20.5325 39.9988C18.7955 39.9988 17.0465 39.7708 15.3235 39.3088C10.1625 37.9268 5.84946 34.6178 3.17846 29.9918C0.507459 25.3668 -0.202541 19.9778 1.18046 14.8188C2.56246 9.65877 5.87246 5.34677 10.4995 2.67577C15.1265 0.00476575 20.5165 -0.704234 25.6775 0.678766C30.8375 2.06077 35.1515 5.36977 37.8225 9.99577C40.4935 14.6208 41.2035 20.0098 39.8205 25.1688ZM36.0185 11.0368C33.6255 6.89277 29.7615 3.92777 25.1375 2.68977C23.5945 2.27677 22.0275 2.07177 20.4715 2.07177C17.3665 2.07177 14.3015 2.88577 11.5405 4.47977C7.39546 6.87177 4.43046 10.7348 3.19146 15.3568C1.95346 19.9798 2.58846 24.8068 4.98146 28.9508C7.37546 33.0948 11.2395 36.0588 15.8625 37.2978C20.4855 38.5358 25.3145 37.9008 29.4595 35.5078C33.6045 33.1158 36.5695 29.2528 37.8085 24.6298C39.0475 20.0088 38.4115 15.1808 36.0185 11.0368ZM31.9735 12.1728C31.6615 12.1728 31.3545 12.0348 31.1485 11.7698C29.0035 8.99777 25.7775 7.13577 22.2975 6.66077C21.7285 6.58277 21.3295 6.05777 21.4065 5.48877C21.4845 4.91777 22.0105 4.51977 22.5795 4.59777C26.5955 5.14577 30.3185 7.29477 32.7955 10.4948C33.1485 10.9488 33.0645 11.6028 32.6095 11.9548C32.4205 12.1018 32.1955 12.1728 31.9735 12.1728ZM31.1875 19.9938C31.1875 20.7818 30.7795 21.4868 30.0975 21.8808L17.2365 29.3038C16.8955 29.5008 16.5215 29.5988 16.1465 29.5988C15.7725 29.5988 15.3985 29.5008 15.0575 29.3038C14.3745 28.9098 13.9675 28.2048 13.9675 27.4168V12.5708C13.9675 11.7828 14.3745 11.0778 15.0575 10.6838C15.7395 10.2898 16.5545 10.2898 17.2375 10.6838L30.0975 18.1068C30.7795 18.4998 31.1875 19.2058 31.1875 19.9938ZM29.0555 19.9108L16.1955 12.4868C16.1855 12.4818 16.1695 12.4728 16.1485 12.4728C16.1345 12.4728 16.1175 12.4768 16.0985 12.4868C16.0505 12.5158 16.0505 12.5528 16.0505 12.5708V27.4168C16.0505 27.4358 16.0505 27.4728 16.0985 27.5008C16.1465 27.5288 16.1795 27.5098 16.1955 27.5008L29.0555 20.0778C29.0715 20.0688 29.1045 20.0498 29.1045 19.9938C29.1045 19.9378 29.0715 19.9198 29.0555 19.9108Z" fill="white"/>
</g>
<defs>
<clipPath id="clip0_1262_1772">
<rect width="40" height="40" fill="white" transform="translate(0.5)"/>
</clipPath>
</defs>
</svg>
