<svg width="699" height="517" viewBox="0 0 699 517" fill="none" xmlns="http://www.w3.org/2000/svg">
<path d="M157.896 214.963C158.403 215.184 158.937 215.312 159.485 215.393C159.3 214.177 159.498 212.699 160.641 211.106C160.181 210.512 159.72 209.917 159.262 209.322C158.297 210.595 157.169 212.697 157.896 214.963Z" fill="#DDE8FE"/>
<path d="M168.361 216.95C166.547 214.498 164.6 211.93 162.67 209.378C162.533 209.441 162.444 209.486 162.464 209.477C161.723 209.924 161.648 210.013 161.653 210.01C161.177 210.393 160.888 210.774 160.892 210.771C160.803 210.883 160.722 210.994 160.643 211.105C162.774 213.854 164.901 216.561 166.832 219.046C167.458 218.435 167.974 217.718 168.361 216.95Z" fill="#DDE8FE"/>
<path d="M174.614 230.06C174.605 230.037 175.834 232.65 174.504 234.157C174.504 234.157 173.032 235.923 171.843 233.592C171.847 233.596 171.727 233.435 171.724 233.43C171.465 233.083 170.976 232.997 170.598 233.244C170.202 233.504 170.154 233.992 170.325 234.428C170.419 234.667 170.61 235.036 171.107 235.443C174.01 237.82 177.541 234.795 177.127 231.339C176.884 229.194 174.008 224.737 170.198 219.465C169.7 220.106 169.15 220.717 168.553 221.276C171.726 225.406 174.101 228.668 174.614 230.06Z" fill="#DDE8FE"/>
<path d="M166.834 219.046C167.429 219.813 168.005 220.557 168.558 221.276C169.155 220.717 169.705 220.107 170.203 219.465C169.61 218.645 168.994 217.804 168.362 216.95C167.976 217.717 167.46 218.434 166.834 219.046Z" fill="#DDE8FE"/>
<path d="M159.264 209.322C159.857 208.54 160.387 208.071 160.387 208.072C160.657 207.84 160.934 207.634 161.213 207.45C159.551 205.246 157.932 203.081 156.453 201.042C156.078 202.229 155.769 203.345 155.52 204.393C156.727 206.011 157.989 207.667 159.264 209.322Z" fill="#DDE8FE"/>
<path d="M153.049 201.024C153.836 202.119 154.663 203.245 155.519 204.393C155.769 203.344 156.078 202.228 156.453 201.042C155.608 199.876 154.809 198.752 154.076 197.686C153.766 198.805 153.413 199.916 153.049 201.024Z" fill="#DDE8FE"/>
<path d="M158.457 220.057C157.329 219.477 152.693 216.229 155.517 204.392C154.661 203.245 153.834 202.118 153.047 201.023C152.618 202.33 152.179 203.635 151.792 204.948C150.859 208.122 150.064 211.51 150.526 214.767C151.126 219.007 154.205 222.103 158.02 223.583C160.004 224.353 162.261 224.568 164.371 223.859C165.923 223.337 167.335 222.415 168.554 221.275C168.002 220.556 167.426 219.812 166.831 219.046C164.891 220.942 161.898 221.826 158.457 220.057Z" fill="#DDE8FE"/>
<path d="M154.023 185.696C151.385 184.309 145.797 184.181 146.262 189.066C146.471 191.275 149.276 195.771 153.048 201.023C153.412 199.916 153.765 198.805 154.075 197.685C150.317 192.222 148.257 188.264 150.387 188.007C151.651 187.855 153.232 188.494 154.198 190C155.23 191.607 154.972 193.772 154.585 195.616C154.44 196.311 154.265 197 154.075 197.685C154.808 198.752 155.607 199.876 156.452 201.041C156.613 200.53 156.786 200.007 156.972 199.468C158.146 196.085 158.33 191.957 157.479 189.718C157.481 189.725 156.597 187.05 154.023 185.696Z" fill="#DDE8FE"/>
<path d="M163.465 209.08C163.32 209.118 164.485 208.747 165.551 208.926C165.113 208.867 167.802 208.846 168.875 211.914C169.418 213.469 169.182 215.322 168.362 216.951C168.993 217.805 169.609 218.645 170.202 219.466C170.282 219.363 170.361 219.259 170.439 219.154C176.114 211.458 167.693 203.17 161.213 207.45C161.696 208.09 162.183 208.734 162.67 209.379C162.89 209.277 163.233 209.13 163.465 209.08Z" fill="#DDE8FE"/>
<path d="M159.262 209.323C159.72 209.918 160.181 210.514 160.641 211.107C160.72 210.995 160.801 210.884 160.89 210.772C160.886 210.776 161.175 210.394 161.651 210.011C161.647 210.015 161.721 209.926 162.462 209.478C162.442 209.487 162.531 209.442 162.668 209.379C162.18 208.734 161.693 208.091 161.211 207.45C160.931 207.635 160.655 207.841 160.384 208.073C160.385 208.071 159.855 208.54 159.262 209.323Z" fill="#DDE8FE"/>
<path d="M161.98 213.448C163.138 214.687 163.361 216.36 162.479 217.185C161.596 218.009 159.942 217.673 158.784 216.434C157.626 215.195 157.403 213.522 158.286 212.697C159.168 211.872 160.823 212.208 161.98 213.448Z" fill="#DDE8FE"/>
<path d="M173.865 232.048C175.023 233.287 175.246 234.961 174.363 235.785C173.481 236.61 171.827 236.274 170.669 235.035C169.511 233.795 169.288 232.122 170.171 231.297C171.053 230.473 172.707 230.809 173.865 232.048Z" fill="#DDE8FE"/>
<path d="M523.201 285.834H473.1V384.515H523.201V285.834Z" fill="#FA7167"/>
<path d="M523.201 336.903C522.757 336.893 522.311 336.887 521.864 336.887H473.1V384.516H523.201V336.903Z" fill="#E8605D"/>
<path d="M411.141 449.39V407.657C411.141 374.581 437.954 347.767 471.031 347.767H515.321C548.398 347.767 575.211 374.581 575.211 407.657V449.39C575.211 482.466 548.398 509.28 515.321 509.28H471.031C437.954 509.28 411.141 482.467 411.141 449.39Z" fill="#FA7167"/>
<path d="M431.717 446.539V413.066C431.717 387.931 452.093 367.555 477.229 367.555H509.124C534.259 367.555 554.635 387.931 554.635 413.066V446.539C554.635 471.674 534.259 492.051 509.124 492.051H477.229C452.093 492.051 431.717 471.674 431.717 446.539Z" fill="#E8605D"/>
<path d="M473.955 409.742C476.136 409.742 477.904 407.974 477.904 405.793C477.904 403.612 476.136 401.844 473.955 401.844C471.774 401.844 470.006 403.612 470.006 405.793C470.006 407.974 471.774 409.742 473.955 409.742Z" fill="#FA7167"/>
<path d="M491.548 401.844C489.368 401.844 487.6 403.612 487.6 405.793C487.6 407.974 489.368 409.742 491.548 409.742C493.729 409.742 495.497 407.974 495.497 405.793C495.497 403.612 493.729 401.844 491.548 401.844Z" fill="#FA7167"/>
<path d="M509.144 401.844C506.963 401.844 505.195 403.612 505.195 405.793C505.195 407.974 506.963 409.742 509.144 409.742C511.325 409.742 513.093 407.974 513.093 405.793C513.093 403.612 511.325 401.844 509.144 401.844Z" fill="#FA7167"/>
<path d="M473.955 424.072C476.136 424.072 477.904 422.304 477.904 420.123C477.904 417.942 476.136 416.174 473.955 416.174C471.774 416.174 470.006 417.942 470.006 420.123C470.006 422.304 471.774 424.072 473.955 424.072Z" fill="#FA7167"/>
<path d="M491.548 416.174C489.368 416.174 487.6 417.941 487.6 420.123C487.6 422.304 489.368 424.072 491.548 424.072C493.729 424.072 495.497 422.304 495.497 420.123C495.497 417.942 493.729 416.174 491.548 416.174Z" fill="#FA7167"/>
<path d="M509.144 416.174C506.963 416.174 505.195 417.941 505.195 420.123C505.195 422.304 506.963 424.072 509.144 424.072C511.325 424.072 513.093 422.304 513.093 420.123C513.093 417.942 511.325 416.174 509.144 416.174Z" fill="#FA7167"/>
<path d="M473.955 430.504C471.774 430.504 470.006 432.272 470.006 434.454C470.006 436.634 471.774 438.402 473.955 438.402C476.136 438.402 477.904 436.634 477.904 434.454C477.904 432.272 476.136 430.504 473.955 430.504Z" fill="#FA7167"/>
<path d="M491.548 430.504C489.368 430.504 487.6 432.272 487.6 434.454C487.6 436.634 489.368 438.402 491.548 438.402C493.729 438.402 495.497 436.634 495.497 434.454C495.497 432.272 493.729 430.504 491.548 430.504Z" fill="#FA7167"/>
<path d="M509.144 430.504C506.963 430.504 505.195 432.272 505.195 434.454C505.195 436.634 506.963 438.402 509.144 438.402C511.325 438.402 513.093 436.634 513.093 434.454C513.093 432.272 511.325 430.504 509.144 430.504Z" fill="#FA7167"/>
<path d="M270.52 509.281C270.52 510.066 271.276 510.702 272.208 510.702H693.1C694.033 510.702 694.789 510.066 694.789 509.281C694.789 508.497 694.033 507.86 693.1 507.86H272.208C271.275 507.86 270.52 508.497 270.52 509.281Z" fill="#4951EC"/>
<path d="M411.232 507.787C411.232 507.787 462.675 509.543 473.956 504.195C485.235 498.847 474.296 491.785 474.296 491.785C474.296 491.785 498.737 485.988 500.345 478.36C501.951 470.732 490.222 471.929 490.222 471.929C490.222 471.929 513.636 455.565 510.279 450.541C504.026 441.182 477.555 457.669 477.555 457.669C477.555 457.669 486.366 448.9 480.154 445.644C470.786 440.734 457.182 464.351 457.182 464.351C457.182 464.351 457.862 458.634 450.657 458.282C437.731 457.652 411.232 507.787 411.232 507.787Z" fill="#92B5F9"/>
<path d="M450.207 454.164C457.412 454.516 457.183 464.35 457.183 464.35C457.183 464.35 470.884 436.449 480.252 441.36C486.463 444.615 479.719 456.362 479.719 456.362C479.719 456.362 504.027 441.181 510.281 450.54L415.535 504.194C418.599 498.325 438.133 453.575 450.207 454.164Z" fill="#4951EC"/>
<path d="M409.311 507.794C409.311 507.794 453.571 476.999 459.939 463.46C466.306 449.922 454.112 451.05 454.112 451.05C454.112 451.05 472.319 427.075 467.998 418.791C463.677 410.507 453.734 420.547 453.734 420.547C453.734 420.547 462.943 387.574 456.01 385.48C443.096 381.58 430.463 423.334 430.463 423.334C430.463 423.334 425.64 400.233 417.412 401.95C405.003 404.539 417.385 438.691 417.385 438.691C417.385 438.691 413.724 427.567 406.789 432.727C394.344 441.986 409.311 507.794 409.311 507.794Z" fill="#92B5F9"/>
<path d="M394.682 433.261C402.497 429.564 404.067 421.786 404.067 421.786C404.067 421.786 404.12 402.474 416.528 399.886C424.757 398.169 430.517 413.684 430.517 413.684C430.517 413.684 443.097 381.58 456.011 385.48L409.178 507.278C407.546 499.513 385.374 437.664 394.682 433.261Z" fill="#4951EC"/>
<path d="M198.809 513.185C198.809 513.185 92.9428 457.658 74.0829 428.633C55.2231 399.608 78.2444 397.238 78.2444 397.238C78.2444 397.238 28.9598 348.021 36.2542 327.673C43.5482 307.325 69.5011 327.204 69.5011 327.204C69.5011 327.204 38.0047 254.529 53.2365 247.546C81.6069 234.537 120.142 311.947 120.142 311.947C120.142 311.947 112.084 278.434 131.484 279.775C160.741 281.799 158.534 357.339 158.534 357.339C158.534 357.339 162.223 328.413 179.746 338.057C211.185 355.359 198.809 513.185 198.809 513.185Z" fill="#4951EC"/>
<path d="M186.271 326.455C172.591 318.626 158.571 340.795 158.571 340.795C158.571 340.795 160.741 281.8 131.484 279.777C112.084 278.435 120.142 311.948 120.142 311.948C120.142 311.948 81.6067 234.538 53.2363 247.547L198.954 511.961C200.25 493.646 213.369 341.964 186.271 326.455Z" fill="#92B5F9"/>
<path d="M197.914 512.867C197.914 512.867 106.127 521.703 82.7219 510.925C59.3167 500.147 76.6355 488.11 76.6355 488.11C76.6355 488.11 26.0555 476.71 22.5622 461.002C19.0688 445.295 43.3051 447.497 43.3051 447.497C43.3051 447.497 -5.39828 414.262 1.41534 403.813C14.1062 384.352 69.1224 417.772 69.1224 417.772C69.1224 417.772 50.7334 399.876 63.4795 393.012C82.7014 382.661 111.326 431.092 111.326 431.092C111.326 431.092 109.79 419.308 124.653 418.416C151.318 416.816 197.914 512.867 197.914 512.867Z" fill="#4951EC"/>
<path d="M125.489 409.905C110.626 410.797 111.326 431.091 111.326 431.091C111.326 431.091 82.4039 373.82 63.182 384.171C50.4363 391.034 64.6274 415.123 64.6274 415.123C64.6274 415.123 14.1069 384.35 1.41602 403.811L198.207 512.365C191.746 500.322 150.397 408.411 125.489 409.905Z" fill="#92B5F9"/>
<path d="M597.862 129.359C595.419 137.923 586.498 142.884 577.936 140.44C569.374 137.997 564.413 129.073 566.855 120.509C569.298 111.946 578.219 106.984 586.781 109.428C595.344 111.872 600.305 120.795 597.862 129.359Z" fill="#BED1F9"/>
<path d="M573.372 125.027C572.066 129.606 574.718 134.377 579.296 135.684C583.874 136.991 588.644 134.338 589.949 129.759L573.372 125.027Z" fill="#EFEFEF"/>
<path d="M515.447 28.2035L506.55 27.4854L505.335 35.7153L496.54 35.3944L494.409 43.1166L487.787 43.9525L488.211 47.3046L497.067 46.187L499.086 38.8686L508.236 39.2021L509.431 31.1078L517.494 31.759L515.447 28.2035Z" fill="#FA7167"/>
<path d="M177.231 135.729L176.795 141.148L167.996 141.411L166.382 149.257L159.83 150.529L160.474 153.846L169.238 152.144L170.767 144.709L179.92 144.436L180.576 136.28L177.231 135.729Z" fill="#FA7167"/>
<path d="M410.043 508.645H292.455C285.087 508.645 279.113 502.671 279.113 495.303V261.974C279.113 254.605 285.087 248.632 292.455 248.632H410.043C417.412 248.632 423.385 254.605 423.385 261.974V495.303C423.385 502.671 417.412 508.645 410.043 508.645Z" fill="#0B0754"/>
<path d="M288.293 496.852V260.43C288.293 258.985 289.464 257.813 290.909 257.813H411.59C413.035 257.813 414.206 258.985 414.206 260.43V496.852C414.206 498.297 413.035 499.468 411.59 499.468H290.909C289.464 499.468 288.293 498.297 288.293 496.852Z" fill="#7C9AF2"/>
<path d="M354.591 315.426C366.721 315.023 376.227 304.864 375.824 292.734C375.421 280.604 365.261 271.098 353.132 271.501C341.003 271.904 331.497 282.063 331.9 294.193C332.302 306.323 342.462 315.829 354.591 315.426Z" fill="#4951EC"/>
<path d="M361.533 293.5C361.533 297.733 358.101 301.166 353.867 301.166C349.633 301.166 346.201 297.733 346.201 293.5C346.201 289.266 349.633 285.834 353.867 285.834C358.101 285.834 361.533 289.266 361.533 293.5Z" fill="#0B0754"/>
<path d="M385.018 378.639C385.018 395.845 371.069 409.793 353.863 409.793C336.657 409.793 322.709 395.845 322.709 378.639C322.709 361.432 336.657 347.484 353.863 347.484C371.069 347.484 385.018 361.432 385.018 378.639Z" fill="#4951EC"/>
<path d="M364.732 378.64C364.732 384.643 359.866 389.508 353.864 389.508C347.862 389.508 342.996 384.643 342.996 378.64C342.996 372.638 347.862 367.772 353.864 367.772C359.866 367.772 364.732 372.639 364.732 378.64Z" fill="#0B0754"/>
<path d="M381.511 465.475C385.515 448.742 375.196 431.932 358.463 427.928C341.73 423.924 324.919 434.243 320.916 450.976C316.912 467.709 327.231 484.519 343.964 488.523C360.697 492.527 377.508 482.208 381.511 465.475Z" fill="#4951EC"/>
<path d="M362.112 458.226C362.112 464.229 357.247 469.094 351.245 469.094C345.242 469.094 340.377 464.229 340.377 458.226C340.377 452.224 345.243 447.358 351.245 447.358C357.247 447.358 362.112 452.224 362.112 458.226Z" fill="#0B0754"/>
<path d="M669.824 140.345L676.922 141.069C677.283 141.106 677.602 141.315 677.777 141.629L681.194 147.788C681.632 148.578 682.801 148.531 683.172 147.708L686.067 141.296C686.214 140.969 686.516 140.735 686.873 140.669L693.886 139.378C694.786 139.212 695.102 138.104 694.42 137.503L689.112 132.816C688.841 132.577 688.708 132.223 688.755 131.868L689.673 124.912C689.79 124.019 688.816 123.381 688.024 123.832L681.849 127.348C681.534 127.527 681.151 127.542 680.822 127.389L674.376 124.381C673.549 123.995 672.631 124.709 672.822 125.589L674.314 132.449C674.39 132.798 674.287 133.162 674.037 133.422L669.135 138.519C668.507 139.173 668.913 140.251 669.824 140.345Z" fill="#BED1F9"/>
<path d="M257.916 219.806L265.013 220.531C265.374 220.568 265.694 220.777 265.868 221.091L269.285 227.25C269.723 228.04 270.893 227.993 271.264 227.17L274.158 220.758C274.306 220.431 274.607 220.197 274.964 220.131L281.978 218.84C282.878 218.674 283.193 217.566 282.512 216.965L277.204 212.277C276.933 212.039 276.8 211.684 276.847 211.33L277.765 204.373C277.882 203.481 276.908 202.843 276.116 203.294L269.941 206.809C269.626 206.988 269.242 207.004 268.914 206.851L262.468 203.843C261.641 203.457 260.723 204.171 260.914 205.05L262.407 211.911C262.483 212.26 262.379 212.624 262.129 212.883L257.228 217.981C256.598 218.635 257.005 219.714 257.916 219.806Z" fill="#BED1F9"/>
<path d="M665.348 214.902L672.445 215.627C672.807 215.663 673.127 215.873 673.3 216.187L676.717 222.345C677.155 223.135 678.325 223.088 678.696 222.266L681.59 215.854C681.737 215.527 682.038 215.293 682.396 215.227L689.409 213.936C690.309 213.77 690.625 212.662 689.944 212.061L684.635 207.373C684.365 207.135 684.232 206.78 684.278 206.426L685.196 199.469C685.314 198.576 684.34 197.939 683.548 198.39L677.373 201.905C677.058 202.084 676.674 202.1 676.346 201.946L669.899 198.939C669.072 198.553 668.154 199.266 668.346 200.146L669.838 207.006C669.914 207.356 669.811 207.72 669.561 207.979L664.658 213.077C664.03 213.73 664.437 214.809 665.348 214.902Z" fill="#BED1F9"/>
<path d="M635.786 349.73C635.475 349.86 639.909 355.574 644.228 359.615C647.711 363.985 650.977 369.159 652.101 374.801C653.81 383.377 652.388 425.752 653.876 428.768C666.657 441.262 675.912 472.621 678.51 482.188C679.016 484.053 680.042 485.733 681.464 487.041L680.895 497.852L674.545 503.702C674.545 503.702 675.957 494.891 673.135 488.357C673.135 488.357 640.956 439.625 639.046 435.9C635.396 425.292 622.107 370.941 622.107 370.941L619.021 358.448C619.022 358.449 635.76 349.741 635.786 349.73Z" fill="#FB9390"/>
<path d="M688.421 490.521C688.421 490.521 684.402 496.715 684.059 499.128C683.715 501.542 681.575 507.017 679.207 507.364C678.669 507.442 669.461 508.118 669.528 506.967C669.579 506.088 672.912 504.832 674.46 503.763C677.136 501.915 681.288 486.866 681.288 486.866C681.288 486.866 688.248 488.592 688.421 490.521Z" fill="#FA7167"/>
<path d="M608.281 368.512C608.281 368.512 587.555 412.828 587.423 420.619C587.309 427.299 591.045 464.77 590.003 495.976C589.965 497.102 588.538 498.6 586.461 499.552C585.293 500.087 579.783 502.788 579.783 502.788L578.873 504.627L598.311 503.242L598.709 498.736L598.589 497.936C598.589 497.936 606.325 451.255 605.536 438.053C605.412 435.979 604.404 423.562 604.404 423.562L627.779 378.432L613.078 359.114L608.281 368.512Z" fill="#FB9390"/>
<path d="M655.81 421.746C655.803 421.76 655.799 421.759 655.795 421.743C655.796 421.744 655.81 421.746 655.81 421.746Z" fill="#0B0754"/>
<path d="M582.926 400.753L623.606 341.981C626.115 342.998 628.487 343.882 631.169 344.4C637.002 345.526 642.842 345.345 648.749 345.153C648.749 345.373 648.761 345.566 648.783 345.73C649.463 350.575 655.889 358.077 657.214 372.781C658.718 389.47 657.808 418.459 657.299 420.362C630.254 417.075 590.601 408.806 582.926 400.753Z" fill="#0B0754"/>
<path d="M636.031 263.646C635.869 265.361 634.96 266.673 634.001 266.575C633.041 266.476 632.394 265.007 632.556 263.291C632.718 261.577 633.626 260.265 634.586 260.364C635.545 260.461 636.192 261.932 636.031 263.646Z" fill="#F7A491"/>
<path d="M598.892 507.621H573.391C572.483 507.54 572.248 506.396 572.761 505.883C573.562 505.081 576.562 504.27 579.781 502.787C585.43 503.376 597.815 500.024 598.707 498.729C599.221 501.321 599.397 507.511 598.892 507.621Z" fill="#FA7167"/>
<path d="M574.205 296.124C574.328 295.798 574.625 296.059 574.992 296.609C574.518 294.617 574.583 292.117 574.958 291.894C575.42 291.619 575.687 295.104 576.714 296.991C577.742 298.878 578.677 301.205 578.819 301.102C579.048 300.938 577.611 298.4 576.598 296.463C575.585 294.526 576.359 285.622 577.302 292.005C578.246 298.388 584.418 303.267 584.598 301.308C584.779 299.35 583.743 296.386 585.015 296.821C586.287 297.256 586.657 301.635 587.775 304.807C587.904 305.173 587.917 306.293 587.91 307.608C587.906 308.293 588.333 308.908 588.977 309.142L605.203 315.043L615.798 296.591L627.78 299.145C627.78 299.145 618.141 324.22 609.925 328.001C606.178 329.724 588.672 317.449 581.787 311.64C574.972 305.894 573.677 297.522 574.205 296.124Z" fill="#FB9390"/>
<path d="M621.056 285C616.826 287.018 606.031 312.064 606.031 312.064L619.914 320.574L624.288 307.836C624.288 307.836 626.26 282.516 621.056 285Z" fill="#BED1F9"/>
<path d="M625.055 264.621C622.995 259.503 620.955 254.348 623.28 248.063C625.16 242.977 629.265 239.614 634.415 238.268C649.008 234.451 648.782 244.301 669.892 242.239C691.726 240.105 700.497 263.843 698.477 271.699C688.813 309.284 645.411 290.97 639.534 284.737C635.163 280.101 626.381 267.916 625.055 264.621Z" fill="#0B0754"/>
<path d="M653.73 282.902C653.73 282.902 656.078 282.793 662.412 285.687C668.744 288.581 682.32 307.405 682.32 307.405L671.263 316.011L652.321 303.622C652.321 303.622 649.92 282.902 653.73 282.902Z" fill="#BED1F9"/>
<path d="M619.914 345.114C626.431 348.577 651.509 348.015 651.509 348.015C652.13 341.497 655.452 324.046 656.904 310.026C658.729 300.268 655.718 297.469 653.733 282.9C653.719 282.801 643.619 282.097 643.619 282.097L633.107 282.356C633.107 282.356 623.964 283.092 621.056 284.997C620.854 285.13 619.697 301.596 620.602 313.262C621.219 321.217 622.121 327.637 622.064 332.895C621.98 340.536 619.914 345.114 619.914 345.114Z" fill="#DDE8FE"/>
<path d="M617.843 305.247C618.049 311.469 626.074 317.46 637.48 317.46C648.886 317.46 658.132 312.413 658.132 306.188C658.132 299.962 650.556 291.204 639.15 291.204C627.744 291.205 617.581 297.356 617.843 305.247Z" fill="#DDE8FE"/>
<path d="M641.164 266.64C641.164 266.64 641.385 268.219 641.725 270.396C642.348 274.381 642.666 280.919 643.466 282.907C644.17 284.655 638.064 301.201 636.054 296.591C632.53 288.507 632.633 286.076 632.451 283.924C632.271 281.793 631.697 274.496 631.315 269.635C631.109 267.004 630.959 265.087 630.959 265.087L641.164 266.64Z" fill="#FB9390"/>
<path d="M631.297 269.546C631.102 266.973 630.959 265.086 630.959 265.086L641.164 266.639C641.164 266.639 641.422 268.125 641.706 270.225C637.568 272.626 633.848 271.868 631.297 269.546Z" fill="#EF7F7F"/>
<path d="M637.961 243.545C637.961 243.545 641.983 244.452 644.467 248.242C646.95 252.032 648.655 263.191 640.475 268.399C632.294 273.607 625.933 266.239 625.827 259.054C625.722 251.867 627.262 242.278 637.961 243.545Z" fill="#FB9390"/>
<path d="M623.955 256.805C624.653 258.539 626.037 259.615 627.047 259.209C628.057 258.802 628.31 257.067 627.612 255.333C626.915 253.599 625.53 252.523 624.52 252.93C623.51 253.336 623.257 255.072 623.955 256.805Z" fill="#FB9390"/>
<path d="M636.75 243.309C636.75 243.309 641.878 254.811 646.384 255.838C650.888 256.866 650.823 262.653 650.823 262.653C650.823 262.653 650.722 249.288 646.5 246.222C642.278 243.156 636.75 243.309 636.75 243.309Z" fill="#0B0754"/>
<path d="M644.598 258.23C644.005 260.098 644.548 261.937 645.81 262.338C647.072 262.739 648.577 261.55 649.17 259.682C649.763 257.814 649.22 255.975 647.957 255.574C646.695 255.173 645.191 256.362 644.598 258.23Z" fill="#FB9390"/>
<path d="M559.053 290.785L566.049 278.231L565.06 277.681L558.064 290.234L559.053 290.785Z" fill="#92B5F9"/>
<path d="M559.052 290.787L566.049 278.232L565.476 277.913L558.479 290.467L559.052 290.787Z" fill="#92B5F9"/>
<path d="M563.883 293.122L570.727 280.845L569.738 280.294L562.894 292.571L563.883 293.122Z" fill="#92B5F9"/>
<path d="M563.883 293.122L570.727 280.845L569.993 280.436L563.149 292.713L563.883 293.122Z" fill="#92B5F9"/>
<path d="M568.828 295.876L575.672 283.599L574.684 283.048L567.84 295.325L568.828 295.876Z" fill="#92B5F9"/>
<path d="M568.828 295.876L575.672 283.599L575.07 283.263L568.227 295.54L568.828 295.876Z" fill="#92B5F9"/>
<path d="M654.082 369.871C649.612 365.818 646.825 357.39 645.155 353.991C645.155 353.991 642.974 349.548 636.422 349.445C629.87 349.343 622.581 345.441 619.251 337.939C615.921 330.437 624.018 319.142 624.018 319.142L624.371 318.511C624.371 318.511 629.718 305.683 637.85 304.569C645.981 303.456 653.134 307.603 656.667 313.122C660.201 318.641 665.126 318.159 665.126 318.159C668.894 317.791 677.53 315.729 683.328 317.399C688.747 318.96 693.05 322.953 695.677 327.998C698.527 333.472 699.005 340.965 694.901 350.373C694.681 350.878 692.515 355.304 691.792 356.504C691.152 357.749 688.527 361.919 688.214 362.372C682.37 370.81 675.747 374.345 669.591 374.8C663.92 375.218 658.259 373.659 654.082 369.871Z" fill="#FA7167"/>
<path d="M639.328 341.279C644.662 344.253 651.576 342.019 654.769 336.29C657.962 330.561 656.226 323.507 650.891 320.533C645.555 317.56 638.642 319.793 635.449 325.522C632.256 331.251 633.993 338.306 639.328 341.279Z" fill="#E8605D"/>
<path d="M641.354 337.645C644.819 339.576 649.31 338.125 651.384 334.404C653.459 330.682 652.33 326.099 648.865 324.168C645.399 322.236 640.908 323.687 638.834 327.408C636.76 331.13 637.888 335.714 641.354 337.645Z" fill="#0B0754"/>
<path d="M557.757 273.963C553.471 276.204 550.907 280.76 551.217 285.586L551.223 285.686L571.379 295.711C572.238 295.433 575.152 296.119 575.152 296.119L579.216 288.827C579.216 288.827 577.1 286.71 576.885 285.833L557.757 273.963ZM572.528 289.166L561.374 282.313C560.488 281.769 560.239 280.554 560.818 279.6C561.397 278.646 562.585 278.313 563.471 278.858L574.624 285.71C575.51 286.255 575.759 287.469 575.18 288.423C574.601 289.378 573.414 289.71 572.528 289.166ZM557.705 285.187C558.212 284.192 559.376 283.765 560.305 284.232L571.999 290.114C572.928 290.581 573.27 291.766 572.763 292.76C572.256 293.755 571.091 294.182 570.163 293.715L558.468 287.833C557.54 287.365 557.198 286.18 557.705 285.187Z" fill="#FA7167"/>
<path d="M638.833 327.408C637.757 329.339 637.543 331.501 638.069 333.405L575.152 296.119L579.217 288.827L644.424 323.404C642.186 323.764 640.076 325.179 638.833 327.408Z" fill="#4951EC"/>
<path d="M665.714 360.451L680.941 333.128L676.873 330.86L661.645 358.184L665.714 360.451Z" fill="#E8605D"/>
<path d="M577.031 284.144L577.053 284.104C577.221 283.803 577.113 283.423 576.812 283.255L574.465 281.946C574.163 281.778 573.783 281.886 573.614 282.188L573.593 282.228C573.425 282.529 573.533 282.909 573.834 283.077L576.181 284.386C576.483 284.553 576.863 284.445 577.031 284.144Z" fill="#0B0754"/>
<path d="M572.068 281.377L572.09 281.337C572.259 281.036 572.151 280.656 571.849 280.487L569.502 279.179C569.2 279.011 568.82 279.119 568.652 279.421L568.63 279.46C568.462 279.761 568.57 280.142 568.871 280.31L571.219 281.619C571.52 281.786 571.901 281.678 572.068 281.377Z" fill="#0B0754"/>
<path d="M567.461 278.537L567.483 278.497C567.65 278.196 567.543 277.816 567.241 277.648L564.894 276.339C564.593 276.171 564.212 276.279 564.044 276.581L564.022 276.621C563.855 276.921 563.963 277.302 564.264 277.47L566.611 278.778C566.912 278.946 567.293 278.838 567.461 278.537Z" fill="#0B0754"/>
<path d="M560.252 291.472L560.274 291.433C560.442 291.132 560.334 290.751 560.032 290.583L557.685 289.275C557.384 289.106 557.004 289.215 556.836 289.516L556.814 289.556C556.645 289.857 556.754 290.237 557.055 290.406L559.403 291.714C559.704 291.882 560.084 291.774 560.252 291.472Z" fill="#0B0754"/>
<path d="M565.055 293.971L565.077 293.93C565.245 293.629 565.137 293.249 564.835 293.081L562.488 291.773C562.187 291.605 561.807 291.712 561.638 292.014L561.616 292.054C561.448 292.355 561.557 292.736 561.858 292.903L564.205 294.212C564.507 294.38 564.888 294.272 565.055 293.971Z" fill="#0B0754"/>
<path d="M569.891 296.661L569.913 296.622C570.081 296.321 569.973 295.941 569.671 295.773L567.324 294.464C567.023 294.296 566.642 294.404 566.474 294.706L566.452 294.745C566.284 295.047 566.392 295.427 566.694 295.595L569.041 296.904C569.342 297.071 569.723 296.963 569.891 296.661Z" fill="#0B0754"/>
<path d="M575.152 296.12L579.217 288.827L580.043 289.265L575.957 296.596L575.152 296.12Z" fill="#DDE8FE"/>
<path d="M580.742 299.431L584.957 291.869L585.304 292.053L581.081 299.632L580.742 299.431Z" fill="#DDE8FE"/>
<path d="M585.861 302.471L590.213 294.663L590.561 294.847L586.2 302.672L585.861 302.471Z" fill="#DDE8FE"/>
<path d="M590.227 305.055L594.695 297.037L595.043 297.222L590.565 305.256L590.227 305.055Z" fill="#DDE8FE"/>
<path d="M594.586 307.637L599.172 299.409L599.52 299.594L594.925 307.837L594.586 307.637Z" fill="#DDE8FE"/>
<path d="M598.609 310.024L603.304 301.603L603.651 301.787L598.948 310.225L598.609 310.024Z" fill="#DDE8FE"/>
<path d="M602.641 312.406L607.443 303.791L607.79 303.975L602.979 312.606L602.641 312.406Z" fill="#DDE8FE"/>
<path d="M606.035 314.423L610.929 305.645L611.276 305.829L606.374 314.624L606.035 314.423Z" fill="#DDE8FE"/>
<path d="M609.438 316.438L614.422 307.495L614.77 307.68L609.776 316.639L609.438 316.438Z" fill="#DDE8FE"/>
<path d="M612.73 318.387L617.803 309.286L618.15 309.47L613.069 318.588L612.73 318.387Z" fill="#DDE8FE"/>
<path d="M615.801 320.211L620.956 310.963L621.303 311.147L616.139 320.412L615.801 320.211Z" fill="#DDE8FE"/>
<path d="M618.711 321.934L623.944 312.546L624.292 312.73L619.05 322.135L618.711 321.934Z" fill="#DDE8FE"/>
<path d="M623.963 325.045L629.336 315.403L629.684 315.588L624.301 325.246L623.963 325.045Z" fill="#DDE8FE"/>
<path d="M626.527 326.565L631.97 316.8L632.318 316.984L626.866 326.765L626.527 326.565Z" fill="#DDE8FE"/>
<path d="M628.619 327.807L634.117 317.941L634.466 318.126L628.958 328.008L628.619 327.807Z" fill="#DDE8FE"/>
<path d="M630.822 329.112L636.38 319.141L636.728 319.325L631.162 329.313L630.822 329.112Z" fill="#DDE8FE"/>
<path d="M564.228 281.884L564.529 281.344L562.954 280.465L562.652 281.005L564.228 281.884Z" fill="white"/>
<path d="M561.374 287.098L561.58 286.729L560.177 285.946L559.971 286.315L561.374 287.098Z" fill="white"/>
<path d="M569.076 284.559L569.307 284.146L567.616 283.203L567.386 283.616L569.076 284.559Z" fill="white"/>
<path d="M566.204 289.746L566.52 289.18L565.001 288.334L564.686 288.9L566.204 289.746Z" fill="white"/>
<path d="M573.97 287.033L574.23 286.566L572.772 285.753L572.512 286.22L573.97 287.033Z" fill="white"/>
<path d="M570.768 292.918L570.922 292.641L569.575 291.892L569.421 292.169L570.768 292.918Z" fill="white"/>
<path d="M621.225 323.418L626.525 313.909L626.873 314.093L621.564 323.619L621.225 323.418Z" fill="#DDE8FE"/>
<path d="M648.464 343.333C648.53 343.488 646.257 343.981 644.198 344.571C642.139 345.161 638.752 345.171 638.91 345.666C639.033 346.051 641.119 346.279 643.034 346.13C642.554 346.336 642.333 346.533 642.587 346.695C643.634 347.365 649.629 346.99 655.134 344.647C660.638 342.302 692.691 324.709 689.443 319.756C688.249 317.934 683.114 312.679 680.181 309.065L671.786 315.599L676.107 320.32C669.486 327.408 659.352 335.1 658.831 335.472C657.429 336.477 654.725 335.608 654.117 335.593C650.777 335.506 646.481 335.466 645.767 336.584C645.051 337.702 648.153 337.323 650.002 337.894C651.852 338.463 645.711 343.322 639.328 342.918C632.947 342.512 640.162 345.362 642.267 344.796C644.372 344.231 648.358 343.082 648.464 343.333Z" fill="#FB9390"/>
<path d="M605.203 315.043L588.977 309.142C588.333 308.908 587.906 308.293 587.91 307.608C587.917 306.293 587.904 305.172 587.775 304.807C586.657 301.635 586.288 297.256 585.015 296.821C583.742 296.386 584.779 299.35 584.598 301.308C584.418 303.267 578.246 298.388 577.302 292.005C576.359 285.622 575.585 294.526 576.598 296.463C577.611 298.4 579.048 300.938 578.819 301.102C578.677 301.205 577.742 298.878 576.714 296.991C575.687 295.104 575.42 291.62 574.958 291.894C574.583 292.117 574.518 294.617 574.992 296.609C574.625 296.058 574.328 295.798 574.205 296.123C573.677 297.522 574.972 305.894 581.787 311.641C588.673 317.449 606.179 329.725 609.925 328.001L605.203 315.043Z" fill="#FB9390"/>
<path d="M386.532 154.455C386.532 154.455 386.875 153.491 386.598 151.391C386.256 148.794 385.269 144.929 385.123 144.594C384.86 143.989 392.961 140.353 392.961 140.353C392.961 140.353 406.378 138.061 408.209 136.315C410.039 134.57 411.656 133.749 410.904 135.422C409.544 138.449 406.08 143.062 405.269 143.732C404.457 144.401 394.284 148.283 394.096 148.305C393.907 148.327 394.753 154.912 394.753 154.912L386.532 154.455Z" fill="#FB9390"/>
<path d="M394.963 150.605C394.963 150.605 386.046 150.156 385.99 151.049C384.753 170.807 384.913 177.269 384.547 177.517C383.297 178.359 362.291 163.92 359.018 163.2C357.452 162.856 355.826 163.137 354.263 163.37C350.537 163.924 351.787 163.684 349.827 164.016L349.83 164.02C349.724 164.039 349.664 164.051 349.664 164.051L350.102 167.566C354.765 170.857 371.226 227.134 372.033 227C372.936 226.85 392.571 229.385 392.044 227.819C391.959 227.565 377.838 218.559 372.384 203.792C370.553 198.835 369.295 193.412 368.061 188.682C372.549 190.303 390.06 196.482 392.555 195.095C400.314 190.781 394.963 150.605 394.963 150.605Z" fill="#4951EC"/>
<path d="M439.896 248.666C439.896 248.666 459.284 260.456 460.168 262.848C461.442 266.296 477.131 259.704 473.128 259.446C472.208 259.387 469.236 258.998 468.984 258.899C467.635 258.372 449.595 241.225 449.595 241.225L439.896 248.666Z" fill="#FB9390"/>
<path d="M480.739 258.543L469.304 258.965C469.304 258.965 466.385 262.029 460.178 262.892C460.178 262.892 459.521 265.852 460.388 269.117C460.537 269.681 460.839 271.402 461.412 271.295C463.488 270.904 468.898 268.855 475.099 266.831C475.099 266.831 483.422 264.01 488.002 260.475C492.582 256.94 480.739 258.543 480.739 258.543Z" fill="#4951EC"/>
<path d="M356.273 223.243C356.273 223.243 369.521 223.884 383.489 218.818C399.65 212.957 417.605 207.18 423.363 209.672C427.997 211.678 459.922 249.371 459.922 249.371L450.373 258.24L416.605 228.4C416.605 228.4 380.241 246.944 371.515 246.403C351.642 245.169 349.522 229.667 356.273 223.243Z" fill="#E8605D"/>
<path d="M369.499 213.304L384.329 227.207L361.09 237.414L356.277 223.243L369.499 213.304Z" fill="#E8605D"/>
<path d="M404.287 280.721C404.287 280.721 406.042 302.268 405.984 305.96C405.926 309.634 416.811 319.392 415.135 315.748C414.75 314.909 413.681 312.11 413.648 311.841C413.471 310.404 414.13 285.508 414.13 285.508L404.287 280.721Z" fill="#FB9390"/>
<path d="M419.547 322.022L413.743 312.16C413.743 312.16 409.66 311.047 405.952 305.996C405.952 305.996 403.035 306.823 400.573 309.139C400.148 309.538 397.251 312.234 397.535 312.743C398.583 314.617 403.404 318.324 408.675 322.372C408.675 322.372 416.011 326.979 421.298 329.33C426.585 331.681 419.547 322.022 419.547 322.022Z" fill="#4951EC"/>
<path d="M420.318 235.928C415.056 230.41 377.715 229.007 377.715 229.007L365.162 210.573L344.213 227.194C344.213 227.194 348.607 244.913 350.873 249.517C353.893 255.653 369.122 254.177 378.389 252.981C386.915 251.88 402.715 251.77 402.715 251.77L402.962 298.921C402.962 298.921 413.608 300.051 416.476 299.324C416.8 299.241 426.863 242.791 420.318 235.928Z" fill="#FA7167"/>
<path d="M349.784 164.068L337.114 166.281C337.114 166.281 336.834 166.418 336.748 166.445C335.732 166.76 341.086 203.812 343.659 217.583C346.233 231.353 348.804 236.962 348.804 236.962C348.804 236.962 365.736 231.838 370.799 229.148C372.9 228.031 377.441 220.733 377.441 220.733C377.441 220.733 371.125 214.057 366.97 202.488C363.765 193.565 359.226 177.613 357.329 174.395C352.974 167.006 349.784 164.068 349.784 164.068Z" fill="#DDE8FE"/>
<path d="M336.148 154.991L337.123 166.293C337.123 166.293 347.066 179.538 351.069 177.052C354.428 174.967 349.987 164.522 349.987 164.522C349.987 164.522 349.077 162.114 347.885 159.365C347.051 157.444 346.299 155.345 346.148 153.758C345.78 149.9 336.148 154.991 336.148 154.991Z" fill="#FB9390"/>
<path d="M342.963 128.142C342.963 128.142 347.923 133.984 348.87 139.284C349.818 144.583 349.119 148.359 349.119 148.359L333.705 133.825L342.963 128.142Z" fill="#0B0754"/>
<path d="M350.136 138.025C350.548 139.871 350.012 141.562 348.939 141.802C347.866 142.041 346.662 140.739 346.25 138.893C345.838 137.047 346.375 135.356 347.447 135.116C348.521 134.877 349.724 136.179 350.136 138.025Z" fill="#EF7F7F"/>
<path d="M329.643 136.926C329.327 136.897 331.2 152.428 336.136 155.55C341.073 158.671 348.948 158.062 350.799 154.108C352.848 149.734 348.497 133.651 341.388 130.969C334.278 128.288 329.643 136.926 329.643 136.926Z" fill="#FB9390"/>
<path d="M327.36 127.428C324.28 130.85 322.878 133.249 321.187 138.883C319.109 145.811 325.593 151.964 330.673 154.112C335.753 156.26 336.551 159.542 336.551 159.542L336.494 157.448C336.507 155.815 335.911 154.954 335.341 154.035C334.833 153.217 333.18 150.405 332.58 149.683C330.996 147.777 330.679 147.361 331.107 145.321C331.437 143.749 330.452 140.489 330.944 137.906L337.184 135.765C337.184 135.765 341.077 134.326 342.824 131.751C347.839 124.358 335.464 118.246 327.36 127.428Z" fill="#0B0754"/>
<path d="M332.826 146.841C333.817 148.452 333.861 150.225 332.925 150.801C331.989 151.378 330.426 150.539 329.435 148.928C328.445 147.317 328.4 145.544 329.337 144.967C330.273 144.39 331.835 145.229 332.826 146.841Z" fill="#FB9390"/>
<path d="M284.107 109.165C285.19 112.07 287.063 116.64 287.063 116.64C287.113 117.952 287.371 123.404 287.701 130.086L296.979 125.031C296.979 125.031 295.581 114.247 295.937 113.535C296.238 112.932 296.939 113.556 299.417 108.929C300.133 107.594 300.033 105.371 300.033 105.371C300.033 105.371 299.888 102.638 299.249 102.457C298.61 102.277 297.96 102.765 297.795 103.26C297.631 103.754 297.817 104.84 297.651 105.334C297.487 105.829 296.144 106.561 295.548 106.602C294.951 106.644 294.67 98.5706 294.67 98.5706C294.67 98.5706 294.732 96.2645 294.812 95.5029C294.881 94.8534 295.236 92.9307 295.236 92.9307C295.236 92.9307 295.593 90.1603 294.733 90.0538C294.226 89.9912 293.23 92.326 292.645 94.7478C292.015 97.356 291.805 100.067 291.536 100.063C290.904 100.053 290.714 95.6315 290.714 95.6315C290.714 95.6315 291.095 93.5506 290.967 92.6051C291.415 91.3749 291.548 89.1752 290.496 89.1192C290.302 89.1087 289.268 92.0056 289.268 92.0056C289.268 92.0056 288.963 93.9953 288.759 94.9321C288.398 96.5849 288.613 99.1018 288.458 100.242C288.329 101.19 288.069 100.837 287.975 100.887C287.902 100.926 287.885 99.6417 287.83 97.8799C287.803 96.9922 287.581 95.9915 287.708 94.9616C287.826 94.0088 287.799 92.6677 287.763 91.86C287.661 89.573 286.261 89.9747 286.013 92.1061C285.919 92.9181 285.824 93.8027 285.73 94.7C285.367 98.1894 285.777 101.461 285.414 101.531C284.943 101.623 284.548 95.625 284.548 95.625C284.548 95.625 283.427 92.4121 283.065 95.5607C282.646 99.2135 283.077 102.1 283.104 102.227C283.283 103.086 283.024 106.261 284.107 109.165Z" fill="#FB9390"/>
<path d="M337.109 166.304C337.109 166.304 324.412 167.207 320.975 166.118C318.891 165.458 301.092 154.296 301.092 154.296L297.115 119.225L285.587 119.711C285.587 119.711 284.26 159.156 286.815 163.153C289.454 167.28 315.373 182.487 321.057 189.746C324.332 193.927 334.217 250.535 335.148 250.984C341.681 253.457 364.164 258.41 363.486 256.52C344.746 204.304 337.109 166.304 337.109 166.304Z" fill="#4951EC"/>
<path d="M390.803 144.685C390.803 144.685 394.14 142.761 395.045 142.335C395.949 141.909 398.896 140.987 398.896 140.987C398.896 140.987 403.003 135.628 404.181 135.361C405.359 135.094 402.072 140.928 402.072 140.928L400.626 142.692C400.626 142.692 402.995 140.118 403.46 139.745C403.925 139.371 407.203 133.188 408.252 133.445C409.301 133.703 407.078 138.042 406.013 140.333C404.948 142.625 399.077 144.658 399.077 144.658L390.803 144.685Z" fill="#FB9390"/>
<path d="M402.028 133.764C401.943 133.669 393.257 124.173 376.65 118.327C352.947 109.984 312.313 119.127 300.251 92.9679C298.099 88.2991 297.999 84.6471 297.996 84.4941C297.984 83.9359 298.828 83.9181 298.84 84.4758C298.841 84.5119 298.945 88.1356 301.035 92.651C312.878 118.231 353.094 109.14 376.93 117.53C388.854 121.728 398.656 128.754 402.656 133.199C403.03 133.614 402.402 134.179 402.028 133.764Z" fill="#4951EC"/>
<path d="M401.697 129.282C401.369 128.924 393.479 120.447 378.677 115.21C362.553 109.483 337.754 110.884 322.85 104.213C313.796 100.161 309.369 94.3597 307.251 90.2078C304.946 85.6912 304.797 82.1766 304.791 82.0296C304.772 81.4719 305.615 81.441 305.635 81.9996C305.637 82.0522 305.796 85.519 308.023 89.8644C310.082 93.8828 314.387 99.5006 323.194 103.443C337.945 110.045 362.697 108.638 378.958 114.415C393.956 119.721 401.984 128.347 402.319 128.712C402.476 128.883 402.465 129.15 402.293 129.308C402.122 129.465 401.855 129.454 401.697 129.282Z" fill="#4951EC"/>
<path d="M401.37 124.799C397.855 120.966 390.581 115.616 380.71 112.094C365.133 106.507 343.961 106.658 330.652 101.075C321.174 97.0991 316.5 91.4818 314.248 87.4694C311.794 83.0988 311.602 79.7081 311.594 79.566C311.567 79.0096 312.409 78.9648 312.437 79.5238C312.439 79.5569 312.636 82.8945 315.008 87.0999C317.199 90.9827 321.747 96.424 330.978 100.296C337.699 103.115 346.404 104.443 355.62 105.849C364.325 107.176 373.327 108.549 380.994 111.3C391.01 114.873 398.409 120.321 401.993 124.228C402.37 124.64 401.748 125.21 401.37 124.799Z" fill="#4951EC"/>
<path d="M401.026 120.312C385.968 103.895 355.462 104.55 338.437 97.9328C328.519 94.0778 323.597 88.641 321.215 84.7586C318.616 80.5232 318.388 77.2351 318.38 77.0977C318.346 76.5404 319.188 76.4896 319.222 77.046C319.226 77.1042 319.467 80.3163 321.963 84.3643C324.281 88.1211 329.072 93.3875 338.742 97.1456C355.71 103.741 386.347 103.059 401.648 119.741C401.805 119.913 401.794 120.179 401.622 120.337C401.451 120.496 401.184 120.484 401.026 120.312Z" fill="#4951EC"/>
<path d="M335.544 87.0111H335.545C334.148 85.5539 332.38 81.3103 331.323 78.7747C329.903 75.3679 330.075 76.0669 329.534 75.7921C328.401 75.5656 329.357 76.3842 320.313 94.8771C316.567 89.9771 305.826 91.1795 305.857 96.8742C305.874 99.8185 308.982 102.448 313.169 102.425C316.078 102.408 318.694 101.076 319.832 99.0281L319.826 99.0251C320.123 98.4835 324.056 90.4509 327.294 83.9464C328.424 88.2483 333.484 91.3829 336.642 89.2998L337.597 88.6695L336.63 88.0592C336.292 87.847 335.596 87.0654 335.544 87.0111Z" fill="#4951EC"/>
<path d="M393.956 104.692C392.24 104.2 388.978 101.73 387.029 100.254C384.968 98.6938 384.753 98.5304 384.245 98.7447C383.17 99.1072 384.285 99.6037 385.609 117.741C380.461 115.778 372.815 121.335 375.418 125.744C378.172 130.409 387.42 126.868 387.303 121.086H387.297C387.281 120.537 386.711 111.332 386.292 104.996C389.151 107.688 394.375 109.11 395.879 106.075L396.386 105.05C395.067 104.951 395.632 105.18 393.956 104.692Z" fill="#4951EC"/>
<path d="M365.91 104.818C365.889 104.052 365.331 95.6942 364.654 85.4303C353.865 86.5732 354.237 86.6801 344.303 85.0986C344.635 90.3716 344.994 95.6694 345.3 99.9313C340.075 97.939 333.591 104.058 336.161 108.409C338.935 113.109 347.646 108.18 347.53 102.427C347.53 102.427 346.945 97.8403 346.449 90.522L363.244 90.6764C363.398 92.939 363.586 97.3852 363.903 101.728C358.707 99.7483 351.454 105.106 354.035 109.477C355.455 111.883 359.151 112.341 362.272 110.499C364.53 109.165 365.962 106.935 365.919 104.818H365.91Z" fill="#4951EC"/>
<path d="M583.497 56.1281C581.795 56.6663 577.712 56.409 575.272 56.2551C572.693 56.0925 572.423 56.0756 572.117 56.535C571.421 57.431 571.485 57.414 582.608 71.8016C577.233 73.0096 575.068 81.6803 579.674 83.9177C584.546 86.2843 590.299 78.2248 587.007 73.4695L587.002 73.4726C586.686 73.0235 581.855 66.765 578.006 61.7146C581.875 62.3788 586.287 59.5797 585.864 56.219L585.721 55.084C584.567 55.7304 585.164 55.6087 583.497 56.1281Z" fill="#7C9AF2"/>
<path d="M365.211 23.1571C365.294 22.3951 365.87 14.0382 366.586 3.77739C355.742 3.45179 356.096 3.60872 346.467 0.699219C346.083 5.96875 345.723 11.2665 345.451 15.5306C340.543 12.8506 333.292 18.0371 335.25 22.6963C337.364 27.7276 346.994 25.4015 347.655 19.686L347.649 19.6851C347.706 19.1595 347.994 14.5116 348.492 7.19332L363.632 9.42903C363.479 11.6921 363.288 14.6555 363.016 19.0017C358.134 16.3378 350.849 21.4891 352.815 26.1679C353.898 28.744 357.497 29.6973 360.839 28.2932C363.257 27.2769 364.977 25.2607 365.22 23.1575L365.211 23.1571Z" fill="#DDE8FE"/>
<path d="M170.436 83.3281L176.026 87.863L182.624 84.647L188.531 90.1739L194.503 84.581L201.458 90.5369L207.592 86.0646L215.221 90.7012L213.467 93.5886L207.762 90.1222L201.29 94.8409L194.604 89.1158L188.532 94.8027L182.014 88.7033L175.57 91.8441L170.389 87.6409L166.589 90.5886L164.518 87.9186L170.436 83.3281Z" fill="#7C9AF2"/>
<path d="M601.191 202.766C601.296 203.309 601.494 203.822 601.738 204.319C602.635 203.478 603.965 202.804 605.925 202.842C606.153 202.126 606.382 201.411 606.613 200.695C605.018 200.622 602.646 200.884 601.191 202.766Z" fill="#7C9AF2"/>
<path d="M605.482 212.514C606.475 209.63 607.487 206.57 608.497 203.534C608.367 203.457 608.28 203.41 608.298 203.42C607.51 203.063 607.394 203.053 607.399 203.054C606.814 202.879 606.336 202.857 606.342 202.858C606.199 202.848 606.061 202.845 605.925 202.842C604.868 206.156 603.842 209.442 602.889 212.441C603.748 212.611 604.631 212.63 605.482 212.514Z" fill="#7C9AF2"/>
<path d="M598.226 225.096C598.24 225.076 596.782 227.569 594.787 227.328C594.787 227.328 592.498 227.115 593.745 224.815C593.744 224.82 593.809 224.63 593.811 224.625C593.95 224.215 593.744 223.763 593.326 223.592C592.887 223.412 592.458 223.65 592.196 224.037C592.052 224.251 591.856 224.617 591.803 225.257C591.489 228.996 595.982 230.191 598.595 227.892C600.225 226.476 602.268 221.582 604.453 215.454C603.642 215.407 602.827 215.3 602.028 215.124C600.425 220.079 599.083 223.885 598.226 225.096Z" fill="#7C9AF2"/>
<path d="M602.89 212.441C602.596 213.366 602.309 214.263 602.029 215.125C602.828 215.3 603.643 215.408 604.454 215.455C604.794 214.501 605.137 213.518 605.483 212.513C604.632 212.63 603.749 212.611 602.89 212.441Z" fill="#7C9AF2"/>
<path d="M606.611 200.694C607.592 200.74 608.279 200.911 608.278 200.911C608.623 201.002 608.948 201.114 609.259 201.239C610.132 198.621 610.999 196.06 611.841 193.687C610.651 194.05 609.556 194.428 608.551 194.816C607.902 196.728 607.253 198.706 606.611 200.694Z" fill="#7C9AF2"/>
<path d="M609.935 190.873C609.478 192.142 609.019 193.462 608.559 194.817C609.564 194.43 610.658 194.052 611.848 193.688C612.33 192.332 612.804 191.037 613.267 189.828C612.169 190.207 611.054 190.545 609.935 190.873Z" fill="#7C9AF2"/>
<path d="M597.314 206.117C597.153 204.858 597.202 199.197 608.556 194.818C609.016 193.463 609.476 192.143 609.932 190.874C608.612 191.261 607.288 191.638 605.987 192.064C602.843 193.093 599.602 194.358 597.178 196.584C594.025 199.481 593.219 203.773 594.161 207.754C594.651 209.826 595.753 211.807 597.532 213.143C598.841 214.127 600.402 214.768 602.031 215.126C602.311 214.264 602.598 213.368 602.891 212.443C600.23 211.919 597.806 209.955 597.314 206.117Z" fill="#7C9AF2"/>
<path d="M623.11 182.991C622.759 180.031 619.698 175.355 615.935 178.505C614.234 179.93 612.118 184.789 609.928 190.873C611.047 190.545 612.162 190.207 613.26 189.828C615.633 183.636 617.726 179.696 619.144 181.305C619.986 182.26 620.356 183.925 619.663 185.574C618.923 187.335 616.993 188.35 615.254 189.076C614.599 189.35 613.932 189.595 613.26 189.828C612.797 191.037 612.323 192.332 611.842 193.688C612.355 193.531 612.884 193.377 613.433 193.225C616.885 192.275 620.392 190.088 621.753 188.119C621.75 188.124 623.454 185.88 623.11 182.991Z" fill="#7C9AF2"/>
<path d="M609.194 204.018C609.079 203.921 610.045 204.67 610.503 205.65C610.303 205.256 611.844 207.459 609.923 210.083C608.95 211.411 607.289 212.266 605.482 212.513C605.137 213.518 604.794 214.501 604.453 215.455C604.583 215.462 604.713 215.469 604.843 215.473C614.401 215.789 616.458 204.154 609.26 201.239C609.006 202 608.752 202.766 608.497 203.533C608.705 203.656 609.021 203.855 609.194 204.018Z" fill="#7C9AF2"/>
<path d="M606.614 200.695C606.383 201.41 606.154 202.127 605.926 202.842C606.062 202.845 606.2 202.848 606.343 202.858C606.337 202.858 606.815 202.878 607.4 203.054C607.395 203.053 607.51 203.063 608.299 203.42C608.282 203.41 608.368 203.457 608.498 203.534C608.753 202.767 609.007 202.001 609.261 201.24C608.951 201.114 608.625 201.004 608.28 200.912C608.282 200.912 607.595 200.741 606.614 200.695Z" fill="#7C9AF2"/>
<path d="M604.756 205.272C604.39 206.929 603.138 208.061 601.959 207.8C600.779 207.54 600.118 205.987 600.483 204.331C600.848 202.674 602.101 201.542 603.281 201.803C604.46 202.062 605.121 203.616 604.756 205.272Z" fill="#7C9AF2"/>
<path d="M596.16 225.603C595.795 227.259 594.543 228.391 593.363 228.131C592.183 227.87 591.523 226.317 591.887 224.661C592.253 223.005 593.505 221.873 594.685 222.133C595.865 222.393 596.525 223.946 596.16 225.603Z" fill="#7C9AF2"/>
<path d="M138.701 422.371V406.04C138.701 355.823 179.411 315.113 229.628 315.113H245.958C296.176 315.113 336.886 355.822 336.886 406.04V422.371C336.886 472.589 296.176 513.298 245.958 513.298H229.629C179.411 513.298 138.701 472.589 138.701 422.371Z" fill="#E8605D"/>
<path d="M186.483 281.665C186.719 273.966 183.889 198.307 203.014 138.477C216.052 97.6146 230.561 79.9593 247.942 65.6639C248.733 65.0419 249.512 64.4089 250.31 63.8025C251.112 63.2004 251.907 62.5932 252.723 62.0137C252.973 61.8368 251.817 62.654 255.167 60.2849C311.883 20.9203 426.79 19.1314 475.02 78.5691C492.64 99.9555 504.317 134.436 509.422 161.909C518.311 209.655 515.803 261.891 514.562 313.303H491.314C487.137 249.389 493.975 169.105 464.464 110.237L463.357 108.076C462.047 106.55 446.318 68.2239 395.505 49.854C331.419 28.196 265.564 59.6206 243.496 117.848C223.373 169.468 225.305 229.977 225.26 281.665H186.483Z" fill="#FA7167"/>
<path d="M239.915 242.534H169.189V344.529H239.915V242.534Z" fill="#FA7167"/>
<path d="M239.913 301.098C234.821 300.093 229.557 299.565 224.17 299.565H187.613C181.274 299.565 175.106 300.295 169.188 301.676V344.527H239.913V301.098Z" fill="#E8605D"/>
<path d="M235.947 67.8342C237.593 70.9154 241.003 72.3317 243.638 70.9937C246.313 69.6352 247.172 65.9546 245.556 62.7738C243.94 59.593 240.462 58.1159 237.787 59.4744C237.089 59.8291 236.518 60.3442 236.079 60.9646L231.831 51.8292L247.417 49.0979L254.682 64.72H254.682C254.691 64.7378 254.698 64.7561 254.707 64.7743C256.323 67.9551 259.801 69.4322 262.476 68.0733C265.151 66.7144 266.01 63.0342 264.395 59.8534C262.779 56.6727 259.301 55.1951 256.625 56.5544C255.929 56.9078 255.359 57.4217 254.92 58.0403L247.14 41.3084C246.888 40.7676 246.347 40.4489 245.85 40.5498L226.437 44.4843C225.789 44.6156 225.492 45.3907 225.82 46.0962L235.932 67.8408L235.947 67.8342Z" fill="#92B5F9"/>
<path d="M117.711 426.047V402.364C117.711 354.177 156.775 315.113 204.962 315.113H212.944C261.132 315.113 300.195 354.177 300.195 402.365V426.046C300.195 474.234 261.132 513.298 212.944 513.298H204.962C156.774 513.298 117.711 474.234 117.711 426.047Z" fill="#FA7167"/>
<path d="M146.232 409.943V401.646C146.232 376.134 166.915 355.451 192.427 355.451H200.724C226.237 355.451 246.918 376.133 246.918 401.646V409.943C246.918 435.455 226.236 456.138 200.724 456.138H192.427C166.915 456.138 146.232 435.456 146.232 409.943Z" fill="#E8605D"/>
<path d="M127.594 409.943V401.646C127.594 376.134 148.276 355.451 173.789 355.451H182.085C207.598 355.451 228.28 376.133 228.28 401.646V409.943C228.28 435.455 207.598 456.138 182.085 456.138H173.789C148.276 456.138 127.594 435.456 127.594 409.943Z" fill="#FA7167"/>
</svg>
