<svg width="583" height="519" viewBox="0 0 583 519" fill="none" xmlns="http://www.w3.org/2000/svg">
<path d="M26.459 119.802C64.7023 109.922 104.541 100.226 143.3 107.833C178.711 114.785 209.742 135.544 243.789 147.507C295.173 165.561 352.025 162.885 404.826 149.532C424.168 144.641 444.011 137.84 457.75 123.373" stroke="#F5F4FF" stroke-miterlimit="10"/>
<path d="M26.459 140.406C64.7023 130.525 104.541 120.829 143.3 128.439C178.711 135.39 209.742 156.149 243.789 168.112C295.173 186.166 352.025 183.491 404.826 170.137C424.168 165.246 444.011 158.446 457.75 143.979" stroke="#F5F4FF" stroke-miterlimit="10"/>
<path d="M26.459 161.01C64.7023 151.129 104.541 141.433 143.3 149.042C178.711 155.994 209.742 176.753 243.789 188.716C295.173 206.77 352.025 204.094 404.826 190.741C424.168 185.85 444.011 179.048 457.75 164.582" stroke="#F5F4FF" stroke-miterlimit="10"/>
<path d="M26.459 181.614C64.7023 171.733 104.541 162.037 143.3 169.647C178.711 176.598 209.742 197.357 243.789 209.32C295.173 227.374 352.025 224.699 404.826 211.345C424.168 206.454 444.011 199.654 457.75 185.187" stroke="#F5F4FF" stroke-miterlimit="10"/>
<path d="M26.459 202.216C64.7023 192.335 104.541 182.639 143.3 190.248C178.711 197.2 209.742 217.959 243.789 229.922C295.173 247.976 352.025 245.3 404.826 231.947C424.168 227.056 444.011 220.255 457.75 205.788" stroke="#F5F4FF" stroke-miterlimit="10"/>
<path d="M149.635 395.276C187.878 385.396 227.717 375.7 266.476 383.309C301.887 390.26 332.918 411.02 366.965 422.981C418.349 441.035 475.2 438.359 528.003 425.006C547.345 420.115 567.189 413.313 580.927 398.847" stroke="#F5F4FF" stroke-miterlimit="10"/>
<path d="M149.635 415.879C187.878 405.999 227.717 396.303 266.476 403.911C301.887 410.862 332.918 431.621 366.965 443.584C418.349 461.638 475.2 458.963 528.003 445.609C547.345 440.718 567.189 433.917 580.927 419.45" stroke="#F5F4FF" stroke-miterlimit="10"/>
<path d="M149.635 436.485C187.878 426.604 227.717 416.908 266.476 424.516C301.887 431.468 332.918 452.227 366.965 464.19C418.349 482.244 475.2 479.568 528.003 466.215C547.345 461.323 567.189 454.523 580.927 440.056" stroke="#F5F4FF" stroke-miterlimit="10"/>
<path d="M149.635 457.087C187.878 447.206 227.717 437.51 266.476 445.119C301.887 452.071 332.918 472.83 366.965 484.793C418.349 502.847 475.2 500.171 528.003 486.818C547.345 481.927 567.189 475.126 580.927 460.659" stroke="#F5F4FF" stroke-miterlimit="10"/>
<path d="M149.635 477.689C187.878 467.808 227.717 458.112 266.476 465.72C301.887 472.672 332.918 493.431 366.965 505.394C418.349 523.448 475.2 520.772 528.003 507.419C547.345 502.528 567.189 495.727 580.927 481.26" stroke="#F5F4FF" stroke-miterlimit="10"/>
<path d="M514.115 449.413C514.706 431.925 425.26 414.708 314.331 410.956C203.402 407.204 112.996 418.34 112.405 435.827C111.813 453.315 201.26 470.533 312.189 474.284C423.118 478.036 513.523 466.901 514.115 449.413Z" fill="#0B0754"/>
<path d="M420.03 430.418C475.644 430.418 520.728 385.334 520.728 329.72C520.728 274.106 475.644 229.021 420.03 229.021C364.416 229.021 319.332 274.106 319.332 329.72C319.332 385.334 364.416 430.418 420.03 430.418Z" fill="#FA7167"/>
<path d="M451.014 430.418C506.628 430.418 551.713 385.334 551.713 329.72C551.713 274.106 506.628 229.021 451.014 229.021C395.4 229.021 350.316 274.106 350.316 329.72C350.316 385.334 395.4 430.418 451.014 430.418Z" fill="#E8605D"/>
<path d="M524.399 348.337C534.679 307.814 510.162 266.631 469.64 256.35C429.117 246.07 387.933 270.587 377.653 311.109C367.373 351.632 391.889 392.816 432.412 403.096C472.935 413.376 514.119 388.86 524.399 348.337Z" fill="#FA7167"/>
<path d="M434.51 169.074V217.57H422.386V169.074C422.386 165.437 422.225 161.84 421.914 158.297C419.341 128.835 406.327 102.391 386.578 82.6278C370.075 66.1386 348.912 54.3384 325.229 49.3944C319.006 48.1005 312.607 47.2799 306.073 46.9693C304.107 46.8755 302.126 46.8213 300.133 46.8213C298.125 46.8213 296.131 46.8755 294.151 46.9693C262.763 48.4786 234.514 61.8144 213.686 82.6278C191.553 104.775 177.88 135.302 177.88 169.073V334.258H165.756V169.073C165.756 131.986 180.803 98.3477 205.119 74.0601C229.408 49.7446 263.046 34.6973 300.133 34.6973C308.714 34.6973 317.094 35.5061 325.229 37.055C336.101 39.0888 346.514 42.4576 356.294 46.9693C370.843 53.6643 383.978 62.8782 395.145 74.0601C417.077 95.9783 431.478 125.494 434.077 158.297C434.362 161.855 434.51 165.45 434.51 169.074Z" fill="#E8605D"/>
<path d="M306.073 46.9712H300.133V46.8232C302.126 46.8232 304.105 46.876 306.073 46.9712Z" fill="#E8605D"/>
<path d="M306.073 46.9712H300.133V46.8232C302.126 46.8232 304.105 46.876 306.073 46.9712Z" fill="#E8605D"/>
<path d="M356.296 34.6982V34.8331C354.316 34.7393 352.322 34.6982 350.314 34.6982H356.296Z" fill="#E8605D"/>
<path d="M325.232 49.3963C301.537 54.3403 280.373 66.1273 263.871 82.6297C241.737 104.777 228.064 135.303 228.064 169.075V334.26H177.883V169.075C177.883 135.302 191.556 104.777 213.689 82.6297C234.516 61.8164 262.766 48.4805 294.154 46.9712C296.134 46.8775 298.128 46.8232 300.136 46.8232V46.9712H306.076C312.608 47.2804 319.007 48.1025 325.232 49.3963Z" fill="#4951EC"/>
<path d="M472.5 197.188V309.512C472.5 323.361 461.265 334.596 447.417 334.596H447.404C433.555 334.596 422.32 323.361 422.32 309.512V197.188H472.5Z" fill="#E8605D"/>
<path d="M484.69 169.074V309.168C484.69 323.026 473.456 334.259 459.599 334.259C445.741 334.259 434.508 323.026 434.508 309.168V169.074C434.508 131.987 419.461 98.3487 395.145 74.0611C383.978 62.8792 370.843 53.6653 356.294 46.9703C346.515 42.4571 336.101 39.0898 325.229 37.0559C317.092 35.5071 308.714 34.6982 300.133 34.6982H350.314C352.322 34.6982 354.314 34.7393 356.295 34.8331C391.012 36.3555 422.359 51.0658 445.328 74.0611C469.642 98.3502 484.69 131.988 484.69 169.074Z" fill="#E8605D"/>
<path d="M181.585 430.418C237.199 430.418 282.283 385.334 282.283 329.72C282.283 274.106 237.199 229.021 181.585 229.021C125.971 229.021 80.8867 274.106 80.8867 329.72C80.8867 385.334 125.971 430.418 181.585 430.418Z" fill="#FA7167"/>
<path d="M212.569 430.418C268.183 430.418 313.267 385.334 313.267 329.72C313.267 274.106 268.183 229.021 212.569 229.021C156.955 229.021 111.871 274.106 111.871 329.72C111.871 385.334 156.955 430.418 212.569 430.418Z" fill="#E8605D"/>
<path d="M263.421 329.719C263.421 357.806 240.654 380.573 212.567 380.573C207.932 380.573 203.447 379.953 199.177 378.794C177.595 372.921 161.713 353.171 161.713 329.718C161.713 306.264 177.595 286.516 199.177 280.641C203.447 279.482 207.933 278.862 212.567 278.862C240.654 278.865 263.421 301.632 263.421 329.719Z" fill="#0B0754"/>
<path d="M236.64 329.719C236.64 353.173 220.758 372.921 199.177 378.795C177.595 372.922 161.713 353.173 161.713 329.719C161.713 306.265 177.595 286.517 199.177 280.643C220.758 286.517 236.64 306.265 236.64 329.719Z" fill="#0B0754"/>
<path d="M437.878 158.298H420.029V217.571H437.878V158.298Z" fill="#E8605D"/>
<path d="M488.91 158.298H437.879V217.571H488.91V158.298Z" fill="#FA7167"/>
<path d="M181.622 158.298H163.773V217.571H181.622V158.298Z" fill="#E8605D"/>
<path d="M232.654 158.298H181.623V217.571H232.654V158.298Z" fill="#FA7167"/>
<path fill-rule="evenodd" clip-rule="evenodd" d="M307.829 423.202C319.984 424.029 332.406 425.217 345.098 426.769C345.367 428.505 345.38 430.168 345.137 431.758C338.75 434.147 332.823 434.255 327.354 432.082C325.395 430.863 323.376 430.179 321.295 430.031C310.755 432.76 306.088 430.06 307.829 423.202Z" fill="#4951EC"/>
<path fill-rule="evenodd" clip-rule="evenodd" d="M203.105 413.742C210.159 410.735 213.729 409.483 213.811 409.984C212.432 411.694 213.091 410.599 215.79 406.701C207.497 402.228 203.35 399.99 203.35 399.99C198.891 405.103 196.662 407.66 196.662 407.66C198.034 411.959 200.182 413.987 203.105 413.742Z" fill="#E9DEDF"/>
<path fill-rule="evenodd" clip-rule="evenodd" d="M311.26 410.492C319.032 408.442 322.918 407.418 322.918 407.418C322.88 413.603 319.032 416.436 311.374 415.914C311.298 412.299 311.26 410.492 311.26 410.492Z" fill="#E9DEDF"/>
<path fill-rule="evenodd" clip-rule="evenodd" d="M345.1 427.313C345.046 427.34 344.993 427.38 344.939 427.408C336.44 432.218 329.794 432.221 325 427.402C322.644 425.201 318.518 424.896 312.648 426.473C310.237 427.103 308.658 426.518 307.935 424.728C307.277 416.116 308.407 412.566 311.339 414.076C311.394 417.164 315.395 416.781 318.65 414.731C320.788 413.401 322.597 411.357 322.804 409.104C328.204 413.867 333.183 417.685 337.738 420.565C342.883 423.048 345.333 425.304 345.1 427.313Z" fill="#4951EC"/>
<path fill-rule="evenodd" clip-rule="evenodd" d="M305.105 256.105C307.394 256.785 315.514 257.095 315.514 257.095C321.822 272.341 328.495 278.67 328.495 278.67C327.474 280.543 316.868 282.762 315.106 282.522C309.29 264.965 305.105 256.105 305.105 256.105Z" fill="#4951EC"/>
<path fill-rule="evenodd" clip-rule="evenodd" d="M259.782 257.895C259.323 280.677 259.093 292.069 259.093 292.069C251.226 282.868 239.433 278.451 223.713 278.821C247.759 264.869 259.782 257.895 259.782 257.895Z" fill="#4951EC"/>
<path fill-rule="evenodd" clip-rule="evenodd" d="M325.797 350.474C325.797 350.474 325.463 369.133 324.821 406.452C321.924 412.734 318.523 415.094 314.53 414.29C312.574 413.907 310.479 412.757 308.219 410.934C307.051 402.972 306.228 381.796 305.737 347.38C304.51 344.34 303.603 340.596 302.991 336.149C299.911 322.709 294.74 312.081 287.479 304.281C287.384 304.159 287.275 304.052 287.167 303.945C287.1 303.865 287.032 303.784 286.95 303.704C286.924 303.73 286.909 303.758 286.883 303.784C277.672 315.284 269.299 329.882 261.733 347.577C260.589 350.912 257.579 353.297 252.719 354.708C249.413 356.975 245.281 361.711 240.312 368.947C234.489 375.216 226.308 387.789 215.783 406.696C212.83 406.803 209.914 405.94 207.035 404.094C205.534 403.13 204.045 401.896 202.557 400.407C202.948 400.406 207.079 392.729 214.924 377.367C219.31 363.286 226.431 351.93 236.288 343.285C238.889 339.97 241.486 335.888 244.053 331.036C246.938 318.917 250.146 306.851 253.665 294.809C256.757 286.801 257.839 275.471 256.937 260.808C258.325 257.486 262.649 256.739 269.884 258.553C278.116 260.443 285.158 261.667 290.999 262.247C295.76 262.697 299.723 262.733 302.903 262.314C302.903 262.314 302.987 262.921 310.322 263.374C315.33 274.095 322.686 296.927 325.218 332.628C326.763 337.136 326.952 343.094 325.797 350.474Z" fill="#FA7167"/>
<path fill-rule="evenodd" clip-rule="evenodd" d="M313.765 354.533C313.49 374.46 313.203 394.413 314.532 414.293C312.575 413.911 310.48 412.761 308.22 410.938C307.053 402.975 306.229 381.8 305.738 347.384C304.512 344.343 303.605 340.6 302.992 336.152C299.912 322.712 294.741 312.084 287.48 304.285V304.123C287.372 304.071 287.265 304.003 287.17 303.949C287.074 303.896 286.981 303.842 286.885 303.789C281.667 300.78 277.28 296.391 274.291 291.186C277.887 293.246 281.374 295.496 284.729 297.934C283.789 295.875 283.146 293.682 282.812 291.444C284.539 291.8 285.303 293.9 286.831 294.783C290.629 296.951 294.537 290.502 298.841 291.211C297.615 294.142 295.509 296.713 292.861 298.478C294.523 299.292 295.488 301.055 296.318 302.709C302.711 315.488 308.109 328.757 312.443 342.354C312.649 343.026 312.867 343.768 312.6 344.415C312.187 345.482 310.666 345.948 310.55 347.081C310.317 349.32 315.061 348.773 315.408 350.996C314.061 351.377 313.786 353.131 313.765 354.533Z" fill="#FA7167"/>
<path fill-rule="evenodd" clip-rule="evenodd" d="M293.53 264.095C285.374 267.286 276.77 269.307 268.05 270.086C263.858 288.157 258.477 305.935 253.11 323.701C251.887 327.71 250.665 331.773 248.592 335.409C244.325 342.923 236.867 348.079 231.855 355.113C228.198 360.212 225.946 366.167 223.504 371.948C218.808 383.037 213.303 393.793 207.039 404.094C205.538 403.13 204.049 401.896 202.561 400.407C202.952 400.406 207.083 392.729 214.928 377.367C219.314 363.286 226.435 351.93 236.292 343.285C238.893 339.97 241.49 335.888 244.057 331.036C246.942 318.917 250.15 306.851 253.669 294.809C256.761 286.801 257.843 275.471 256.941 260.808C258.329 257.486 262.653 256.739 269.887 258.553C278.12 260.443 285.162 261.667 291.003 262.247C291.867 262.823 292.705 263.451 293.53 264.095Z" fill="#FA7167"/>
<path fill-rule="evenodd" clip-rule="evenodd" d="M311.839 264.594C308.133 264.892 304.549 265.193 301.085 265.505C286.221 266.771 273.782 267.879 265.34 267.215C259.959 266.794 256.207 265.665 254.444 263.421C249.277 262.675 250.999 252.679 249.529 243.733C249.855 232.138 251.014 216.818 252.99 197.76C253.361 196.289 253.73 194.4 254.07 192.079C254.608 188.558 255.127 184.039 255.602 178.55C257.128 176.758 257.118 174.547 258.285 172.68C259.214 171.191 261.23 169.343 262.801 168.573C263.769 168.098 264.848 167.884 265.923 167.79C268.937 167.528 271.963 168.174 274.84 169.113C280.934 171.105 283.191 175.663 286.605 180.703C290.662 186.697 292.563 189.506 292.563 189.506C295.301 195.885 296.396 202.687 295.836 209.915C298.254 220.002 300.122 227.893 301.443 233.59C308.368 254.269 311.839 264.594 311.839 264.594Z" fill="#FCF7F7"/>
<path fill-rule="evenodd" clip-rule="evenodd" d="M301.088 265.504C301.031 264.871 301.123 264.249 301.363 263.643C298.79 263.911 296.202 264.191 293.615 264.459C293.31 262.614 294.988 261.055 296.616 260.119C298.242 259.181 300.14 258.311 300.846 256.568C298.471 255.959 296.201 254.945 294.173 253.564C296.69 252.704 299.208 251.857 301.71 250.996C301.901 248.352 299.573 246.301 297.462 244.692C295.379 243.111 293.297 241.515 291.213 239.934C288.02 237.494 284.638 234.827 283.368 231.004C289.947 231.231 294.201 238.775 300.677 239.865C298.115 233.352 294.042 227.438 288.873 222.715C286.963 220.958 284.745 219.066 284.585 216.479C288.738 219.547 292.675 222.914 296.385 226.51C295.361 220.583 294.324 214.669 293.286 208.742C292.47 204.04 291.653 199.312 290.123 194.789C288.169 188.947 285.085 183.554 282.014 178.203L286.609 180.703C290.666 186.698 292.567 189.507 292.567 189.507C295.306 195.885 296.4 202.687 295.84 209.916C298.258 220.003 300.126 227.893 301.447 233.591C308.375 254.266 311.845 264.592 311.845 264.592C308.136 264.893 304.55 265.192 301.088 265.504Z" fill="#F4EDDF"/>
<path fill-rule="evenodd" clip-rule="evenodd" d="M280.606 249.904C280.081 250.271 279.353 250.058 278.758 249.831C272.275 247.353 266.14 243.97 260.594 239.801C260.053 239.385 259.485 238.957 258.811 238.919C257.691 238.856 256.78 239.952 256.636 241.058C256.479 242.165 256.888 243.268 257.284 244.317C260.148 251.881 262.839 259.512 265.34 267.213C259.959 266.792 256.207 265.662 254.444 263.419C249.277 262.673 250.999 252.677 249.529 243.731C249.855 232.136 251.014 216.816 252.99 197.758C253.361 196.287 253.73 194.398 254.07 192.077C256.371 196.907 259.491 201.369 262.88 205.533C268.112 211.926 274.029 217.738 279.208 224.185C277.808 224.798 276.227 223.929 274.942 223.085C269.277 219.376 263.612 215.667 257.933 211.957C257.143 213.241 258.013 214.869 258.896 216.105C266.208 226.412 274.488 236.11 280.578 247.191C281.056 248.07 281.438 249.348 280.606 249.904Z" fill="#F4EDDF"/>
<path fill-rule="evenodd" clip-rule="evenodd" d="M250.457 238.323C250.611 248.497 257.039 250.599 258.442 270.314C258.031 270.69 257.639 271.065 257.228 271.408C243.037 283.872 230.794 279.701 216.774 280.111C214.5 270.947 215.166 259.286 218.809 245.145C220.604 238.204 222.896 231.603 224.109 224.542C224.212 223.96 224.314 223.378 224.383 222.78C224.914 219.088 225.238 215.36 225.358 211.615C225.391 210.007 225.289 208.366 225.443 206.776C225.476 206.451 225.528 206.143 225.563 205.835C225.734 204.725 225.871 203.63 224.912 202.723C224.553 202.398 224.109 202.193 223.664 201.988C218.638 199.713 213.37 197.952 207.967 196.944C203.916 196.208 199.778 195.901 195.862 194.636C188.801 192.362 183.996 185.78 179.448 180.257C173.771 173.298 168.112 166.322 162.436 159.345C163.392 159.312 164.317 159.243 165.189 159.106C172.593 158.114 177.363 154.097 179.501 147.035C181.211 149.617 182.921 152.181 184.647 154.747C187.211 158.611 189.4 162.716 192.05 166.511C193.982 169.28 197.077 175.213 201.111 174.428C201.334 174.377 201.59 174.325 201.813 174.394C203.352 174.958 201.009 177.83 203.694 177.301C204.566 177.13 205.336 176.104 206.31 175.881C207.302 175.643 208.361 175.728 209.302 176.155C210.277 176.599 211.233 177.42 212.294 177.232C213.235 177.079 213.851 176.189 214.535 175.505C215.835 174.24 217.715 173.607 219.51 173.83C220.723 173.984 221.938 174.497 223.117 174.171C224.058 173.915 224.776 173.163 225.545 172.564C229.238 169.674 234.488 170.221 238.865 170.256C242.798 170.29 246.524 170.546 250.406 171.248C252.132 171.573 253.962 171.556 255.808 171.42C257.347 171.351 258.886 171.197 260.374 171.112C259.895 175.335 259.177 179.542 258.22 183.678C257.366 187.268 255.826 190.688 255.074 194.229C253.484 201.598 253.484 209.036 252.424 216.44C251.055 225.994 250.39 232.646 250.457 238.323Z" fill="#4951EC"/>
<path fill-rule="evenodd" clip-rule="evenodd" d="M250.456 238.323C250.61 248.496 257.039 250.599 258.441 270.313C258.031 270.69 257.638 271.065 257.228 271.408C256.748 268.911 256.064 266.449 255.159 264.073C253.21 258.909 250.32 254.122 248.541 248.907C245.326 239.383 246.079 229.038 247.225 219.07C247.738 214.521 248.336 209.957 249.004 205.425C249.586 201.407 250.235 197.269 249.414 193.285C248.576 189.3 245.909 185.419 241.977 184.411C246.576 180.085 251.192 175.742 255.809 171.416C257.348 171.347 258.886 171.193 260.375 171.108C259.896 175.331 259.178 179.538 258.221 183.675C257.367 187.265 255.827 190.685 255.075 194.225C253.485 201.594 253.485 209.032 252.424 216.437C251.054 225.993 250.389 232.646 250.456 238.323Z" fill="#4951EC"/>
<path fill-rule="evenodd" clip-rule="evenodd" d="M319.481 255.591C319.145 255.98 318.759 256.323 318.328 256.606C319.65 255.743 319.422 252.384 319.354 251.058C319.264 249.356 319.135 247.458 317.739 246.249C317.091 245.688 316.29 245.333 315.478 245.053C312.36 243.974 306.557 243.282 303.785 245.53C301.059 236.717 299.771 227.203 297.815 218.16C296.95 205.587 295.195 196.036 292.563 189.509C285.452 179.012 281.787 173.609 281.57 173.273C294.409 180.001 302.095 184.023 302.448 184.208C305.745 185.865 307.076 191.008 307.143 196.968C307.161 197.831 307.191 198.666 307.222 199.462C307.471 207.009 307.964 211.537 308.671 213.044C308.808 213.34 308.957 213.514 309.118 213.581C311.703 215.74 313.1 217.621 313.322 219.239C313.378 219.602 313.366 219.939 313.3 220.276C313.607 222.391 314.138 223.94 314.912 224.92C315.062 225.001 315.21 225.08 315.344 225.188C317.629 226.634 318.315 229.232 317.389 232.97C316.378 236.049 316.064 238.247 316.448 239.581C317.002 241.506 318.222 243.134 319.126 244.895C320.063 246.718 320.472 248.802 320.832 250.806C321.135 252.493 320.596 254.294 319.481 255.591Z" fill="#4951EC"/>
<path fill-rule="evenodd" clip-rule="evenodd" d="M303.758 245.623C307.305 242.56 313.114 242.433 317.079 244.755C317.986 245.285 318.834 245.949 319.441 246.807C320.924 248.904 321.827 252.058 320.457 254.382C318.982 256.883 315.817 257.821 313.19 256.64C309.408 254.941 306.264 251.269 303.758 245.623Z" fill="#4951EC"/>
<path fill-rule="evenodd" clip-rule="evenodd" d="M179.618 147.096C178.3 156.2 172.614 160.3 162.561 159.396C163.321 151.848 169.007 147.748 179.618 147.096Z" fill="#4951EC"/>
<path fill-rule="evenodd" clip-rule="evenodd" d="M171.594 158.183C173.819 158.084 176.148 155.612 177.102 154.196C177.055 154.062 176.915 153.654 176.494 152.508C175.893 150.91 175.321 149.6 174.733 148.575C170.803 143.817 166.577 140.614 162.045 138.945C162.045 138.945 158.575 136.777 151.637 132.439C150.677 131.83 150.045 131.485 149.755 131.412C149.417 132.278 149.793 133.32 150.873 134.53C150.873 134.53 152.528 135.509 155.842 137.484C154.831 137.394 153.886 137.212 153.004 136.911C151.741 136.615 150.812 136.791 150.195 137.413C150.267 138.345 151.572 138.89 154.095 139.058C155.846 139.407 157.4 140.271 158.784 141.665C158.878 141.791 158.978 141.904 159.073 142.03C160.723 144.128 161.569 145.913 161.633 147.365C161.558 147.655 161.419 147.89 161.196 148.046C160.779 148.357 160.087 148.41 159.11 148.202C157.255 148.291 155.901 149.006 155.061 150.353C154.698 151.748 155.615 151.888 157.817 150.804C158.551 150.36 159.532 150.381 160.771 150.842C165.059 153.576 168.299 154.589 170.529 153.867C170.529 153.864 170.888 155.304 171.594 158.183Z" fill="#E4A78E"/>
<path fill-rule="evenodd" clip-rule="evenodd" d="M163.242 139.425C163.638 140.773 163.776 141.724 163.654 142.276C161.456 141.06 159.907 141.132 159.006 142.493C157.55 144.071 156.363 144.443 155.445 143.61C157.339 141.394 158.285 140.286 158.285 140.286C159.753 139.227 161.406 138.94 163.242 139.425Z" fill="#E4A78E"/>
<path fill-rule="evenodd" clip-rule="evenodd" d="M209.286 442.5C217.965 442.717 223.091 441.124 225.4 437.661C224.244 435.623 222.288 435.002 219.53 436.275C218.264 436.827 217.005 437.374 216.358 438.472C207.725 440.866 202.644 439.663 200.345 434.586C201.152 431.185 200.175 425.389 195.48 420.466C191.515 417.032 190.61 414.008 192.949 410.175C190.791 411.716 190.035 412.87 188.877 416.298C189.24 424.33 195.54 425.004 196.478 434.49C198.094 440.469 202.362 443.139 209.286 442.5Z" fill="#4951EC"/>
<path fill-rule="evenodd" clip-rule="evenodd" d="M223.306 435.906C220.178 435.825 217.971 436.846 216.661 438.983C208.139 441.421 202.671 440.083 200.262 434.971C200.652 419.599 187.283 420.483 192.697 410.428C199.273 403.739 202.562 400.408 202.562 400.408C200.487 403.841 199.348 405.437 199.146 405.21C197.409 408.75 197.852 411.189 200.473 412.538C204.424 412.588 210.127 406.59 214.702 410.641C214.756 410.869 214.812 411.084 214.853 411.315C215.513 414.304 215.203 417.258 213.949 420.175C213.308 427.782 214.703 432.049 218.158 432.991C220.195 433.211 221.64 433.609 222.465 434.212C223.098 434.653 223.384 435.218 223.306 435.906Z" fill="#4951EC"/>
<path fill-rule="evenodd" clip-rule="evenodd" d="M317.368 255.645C312.673 260.803 310.324 263.374 310.324 263.374C307.873 266.863 306.548 269.241 306.365 270.497C305.556 270.649 305.258 270.273 305.456 269.369C306.066 266.913 306.769 264.671 307.569 262.659C305.322 263.37 302.023 267.416 299.167 267.981C298.073 267.259 298.624 267.161 300.356 265.496C302.974 263.314 303.738 262.016 304.593 260.57C305.65 258.772 296.412 264.111 294.367 264.861C293.463 264.718 292.518 264.398 293.348 263.357C297.611 260.885 299.624 258.893 302.744 257.302C302.121 256.657 301.299 256.836 298.081 257.862C294.298 258.958 292.4 259.519 292.4 259.519C292.008 259.009 292.329 258.373 293.363 257.601C296.701 256.345 303.012 253.688 305.9 251.342C307.767 249.824 308.207 248.447 305.506 247.678C303.05 247.042 301.79 245.619 301.739 243.462C301.739 243.273 301.751 243.071 301.764 242.855C302.356 242.596 303.031 242.945 303.79 243.912C305.588 245.212 307.669 245.944 310.015 246.135C312.548 246.016 314.508 247.005 315.919 249.087C318.038 251.704 318.52 253.899 317.368 255.645Z" fill="#E2A084"/>
<path fill-rule="evenodd" clip-rule="evenodd" d="M308.12 250.077C307.449 250.633 306.709 251.041 305.902 251.34C307.769 249.822 308.208 248.445 305.508 247.676C303.052 247.04 301.792 245.617 301.74 243.46C302.149 244.254 302.759 244.938 303.462 245.475C304.545 246.279 305.853 246.758 307.163 247.09C307.878 247.276 308.715 247.5 308.948 248.2C309.194 248.886 308.684 249.603 308.12 250.077Z" fill="#E19C90"/>
<path fill-rule="evenodd" clip-rule="evenodd" d="M232.85 257.802C227.851 252.486 225.308 235.214 224.113 224.542C224.219 223.962 224.311 223.382 224.389 222.788C224.912 219.093 225.246 215.356 225.35 211.621C225.397 210.003 225.294 208.359 225.45 206.768C225.579 205.352 226.138 203.88 224.906 202.727C233.893 207.567 231.16 217.434 231.953 226.018C232.745 234.615 240.692 256.825 243.491 261.867C246.291 266.909 239.202 264.528 232.85 257.802Z" fill="#4951EC"/>
<path fill-rule="evenodd" clip-rule="evenodd" d="M226.952 205.872L225.563 205.838C225.733 204.718 225.864 203.625 224.903 202.727C224.551 202.405 224.105 202.191 223.658 201.991C218.634 199.708 213.368 197.953 207.958 196.952C203.91 196.215 199.769 195.897 195.854 194.634C188.793 192.36 183.991 185.789 179.45 180.255C173.77 173.298 168.104 166.326 162.438 159.34C163.394 159.31 164.312 159.238 165.186 159.099C165.241 159.112 165.282 159.112 165.334 159.125C166.01 159.27 166.71 159.43 167.292 159.803C167.995 160.259 168.483 160.958 168.958 161.629C170.967 164.545 173.001 167.448 175.036 170.351C180.978 178.791 187.786 187.738 197.747 190.377C201.298 191.305 205.005 191.369 208.607 192.04C214.664 193.173 220.367 196.086 224.848 200.312C226.396 201.776 227.887 203.967 226.952 205.872Z" fill="#4951EC"/>
<path fill-rule="evenodd" clip-rule="evenodd" d="M308.67 213.043C307.805 212.682 306.954 212.337 306.091 211.989C305.672 211.816 305.213 211.603 305.008 211.2C304.872 210.904 304.897 210.567 304.923 210.243C305.27 206.588 306.469 203.049 307.221 199.461C307.47 207.009 307.962 211.537 308.67 213.043Z" fill="#4951EC"/>
<path fill-rule="evenodd" clip-rule="evenodd" d="M315.343 225.186C315.236 225.24 315.115 225.294 315.008 225.363C312.695 226.721 311.846 229.731 309.722 231.372C309.252 231.738 308.553 232.011 308.093 231.636C307.728 231.328 307.752 230.748 307.857 230.275C308.241 228.56 309.312 227.086 310.248 225.586C311.494 223.585 312.523 221.45 313.321 219.236C313.377 219.6 313.365 219.937 313.299 220.274C313.605 222.388 314.137 223.937 314.911 224.917C315.059 224.998 315.208 225.079 315.343 225.186Z" fill="#4951EC"/>
<path fill-rule="evenodd" clip-rule="evenodd" d="M269.68 155.58C269.722 155.6 269.764 155.622 269.805 155.643Z" fill="#FA7167"/>
<path fill-rule="evenodd" clip-rule="evenodd" d="M345.096 427.313C345.042 427.341 344.989 427.381 344.935 427.409C340.283 427.079 335.742 424.619 331.607 422.224C327.281 419.736 322.97 417.235 318.645 414.732C320.782 413.402 322.592 411.358 322.799 409.105C328.198 413.868 333.178 417.686 337.733 420.566C342.879 423.049 345.329 425.305 345.096 427.313Z" fill="#E8605D"/>
<path fill-rule="evenodd" clip-rule="evenodd" d="M222.46 434.211C221.181 434.581 219.739 434.695 218.417 434.688C215.506 434.646 212.269 434.405 210.012 436.248C210.425 435.29 211.082 434.45 211.889 433.827C211.321 433.209 210.311 433.524 209.488 433.433C207.438 433.213 206.671 430.655 206.513 428.593C206.284 425.79 206.245 422.987 206.408 420.181C206.558 417.672 206.83 415.042 205.821 412.741C205.713 412.486 205.59 412.217 205.684 411.96C205.75 411.785 205.898 411.663 206.046 411.555C208.304 409.9 211.415 409.455 214.048 410.426L214.848 411.313C215.509 414.302 215.198 417.256 213.944 420.174C213.303 427.78 214.698 432.047 218.154 432.989C220.192 433.21 221.635 433.608 222.46 434.211Z" fill="#E8605D"/>
<path fill-rule="evenodd" clip-rule="evenodd" d="M279.861 173.73C279.467 172.708 279.438 165.914 279.848 162.899C274.694 170.4 269.409 174.336 263.996 174.736C267.683 176.628 271.411 178.335 275.201 179.761C277.37 177.495 279.023 178.211 279.861 173.73Z" fill="#E19C90"/>
<path fill-rule="evenodd" clip-rule="evenodd" d="M262.521 141.467C256.98 143.345 253.862 147.475 253.166 153.852C254.454 168.474 258.262 176.447 264.591 177.769C273.144 175.193 278.1 170.996 279.455 165.179C280.267 160.599 280.402 156.672 279.858 153.4C272.92 146.827 267.141 142.849 262.521 141.467Z" fill="#E8B6A1"/>
<path fill-rule="evenodd" clip-rule="evenodd" d="M279.798 154.851C279.943 158.715 279.841 161.525 279.492 163.283C281.274 163.264 282.481 161.921 283.116 159.252C283.15 156.586 282.043 155.119 279.798 154.851Z" fill="#E19C90"/>
<path fill-rule="evenodd" clip-rule="evenodd" d="M263.032 141.083C260.393 140.951 259.005 141.878 258.869 143.865C263.34 143.713 266.581 144.636 268.596 146.633C268.228 143.776 266.374 141.927 263.032 141.083Z" fill="#9C5E83"/>
<path fill-rule="evenodd" clip-rule="evenodd" d="M252.348 153.501C252.589 153.853 252.827 154.203 253.068 154.555C252.713 151.813 253.307 148.959 254.725 146.586C253.267 149.026 258.095 155.158 259.585 156.684C259.458 154.92 259.587 153.136 259.965 151.407C261.717 154.218 264.949 156.045 268.262 156.096C267.847 154.895 267.289 153.743 266.601 152.675C267.681 154.04 280.878 159.644 277.577 162.935C279.58 160.938 279.366 158.576 279.896 155.975C279.927 155.825 279.964 155.664 280.081 155.564C280.242 155.428 280.485 155.466 280.685 155.538C282.422 156.17 282.839 158.395 282.979 160.239C282.979 157.815 284.175 153.907 284.978 151.648C285.715 149.571 288.007 147.801 287.907 145.476C287.854 144.229 287.041 143.16 286.263 142.183C284.729 140.256 283.196 138.331 281.663 136.404C279.256 133.378 275.795 132.008 271.959 132.834C270.773 133.007 269.727 132.742 268.818 132.037C263.351 127.795 255.434 136.268 251.978 139.944C250.942 141.046 249.906 142.179 249.223 143.528C248.54 144.878 248.245 146.493 248.757 147.915C248.997 148.585 249.403 149.18 249.804 149.768C250.65 151.013 251.498 152.257 252.348 153.501Z" fill="#FA7167"/>
<path fill-rule="evenodd" clip-rule="evenodd" d="M275.428 138.573C274.52 136.806 270.341 135.512 268.598 135.342C272.413 137.962 277.24 143.538 274.438 148.754C275.389 146.984 275.643 144.936 275.879 142.94C277.442 144.194 277.631 146.463 277.696 148.466C278.562 146.495 278.7 144.213 278.077 142.152C279.443 144.329 280.122 146.931 279.996 149.499C281.251 146.813 281.498 143.671 280.682 140.823C279.866 137.973 277.992 135.44 275.505 133.826C276.314 135.164 276.993 136.579 277.527 138.047C275.984 136.324 274.153 134.862 272.131 133.739C273.424 135.206 274.534 136.834 275.428 138.573Z" fill="white"/>
<path fill-rule="evenodd" clip-rule="evenodd" d="M262.021 168.233C262.86 169.907 265.373 169.797 266.882 168.447C265.638 169.091 263.123 169.199 262.021 168.233Z" fill="#FA7167"/>
<path fill-rule="evenodd" clip-rule="evenodd" d="M278.045 115.767L311.542 68.1439L206.199 0.739258L278.045 115.767Z" fill="#DDE8FE"/>
<path fill-rule="evenodd" clip-rule="evenodd" d="M488.912 174.829L514.428 224.291L532.744 135.228L488.912 174.829Z" fill="#4951EC"/>
<path fill-rule="evenodd" clip-rule="evenodd" d="M409.938 471.281L374.889 428.048L375.085 518.975L409.938 471.281Z" fill="#DDE8FE"/>
<path fill-rule="evenodd" clip-rule="evenodd" d="M74.5303 228.281L97.8625 239.34L50.332 258.638L74.5303 228.281Z" fill="#EFEFEF"/>
<path fill-rule="evenodd" clip-rule="evenodd" d="M136.042 194.833L103.719 150.658L145.381 169.693L136.042 194.833Z" fill="#4951EC"/>
<path fill-rule="evenodd" clip-rule="evenodd" d="M158.071 482.966L103.348 484.21L137.309 439.503L158.071 482.966Z" fill="#92B5F9"/>
<path fill-rule="evenodd" clip-rule="evenodd" d="M561.997 307.814L493.367 338.458L538.635 278.866L561.997 307.814Z" fill="#FFD147"/>
<path fill-rule="evenodd" clip-rule="evenodd" d="M384.115 161.676L328.482 166.405L367.164 140.205L384.115 161.676Z" fill="#4951EC"/>
<path d="M30.0373 360.855C29.5479 361.295 29.038 361.714 28.5178 362.111C27.196 363.119 15.1306 372.875 14.8845 372.536C10.6336 366.694 -4.8138 352.604 2.18748 344.66C4.47778 342.062 8.80337 342.178 11.6842 344.098C14.5665 346.017 16.2677 349.26 17.5235 352.487C16.6897 350.344 21.9033 344.386 23.7115 343.623C26.6275 342.392 31.4088 343.522 33.3387 345.973C35.2758 348.433 35.456 351.972 34.3468 354.901C33.472 357.217 31.8924 359.19 30.0373 360.855Z" fill="#7C9AF2"/>
<path d="M578.09 420.506C577.654 420.897 577.202 421.269 576.739 421.623C575.563 422.519 564.827 431.2 564.607 430.898C560.825 425.699 547.081 413.163 553.31 406.095C555.347 403.784 559.196 403.885 561.76 405.593C564.324 407.301 565.838 410.186 566.955 413.058C566.213 411.151 570.851 405.85 572.461 405.17C575.055 404.075 579.31 405.079 581.028 407.261C582.751 409.45 582.912 412.599 581.924 415.204C581.145 417.268 579.74 419.025 578.09 420.506Z" fill="#7C9AF2"/>
<path d="M524.279 74.1711C524.088 74.9404 523.863 75.7024 523.612 76.4511C522.976 78.3516 517.537 96.2476 517.061 96.0761C508.867 93.1221 483.922 89.5144 485.536 76.8512C486.063 72.7102 490.456 69.8982 494.631 69.8645C498.804 69.8308 502.696 71.9145 506.132 74.2854C503.852 72.7116 505.022 63.2413 506.311 61.2543C508.387 58.0541 513.923 55.9455 517.506 57.087C521.103 58.2314 523.677 61.6412 524.551 65.3133C525.243 68.2175 525.003 71.2566 524.279 74.1711Z" fill="#BED1F9"/>
</svg>
